<?xml version="1.0" encoding="UTF-8"?><svg xmlns="http://www.w3.org/2000/svg" viewBox="0 0 1200 780" width="1200" height="780"><rect width="1200" height="780" fill="#f0f2f5"/><rect x="8" y="8" width="1184" height="724" fill="white" stroke="#333" stroke-width="1.5"/><defs>
  <marker id="aC" markerWidth="8" markerHeight="8" refX="7" refY="4" orient="auto">
    <path d="M0,1 L7,4 L0,7 z" fill="#1565c0"/></marker>
  <marker id="aG" markerWidth="8" markerHeight="8" refX="7" refY="4" orient="auto">
    <path d="M0,1 L7,4 L0,7 z" fill="#2e7d32"/></marker>
  <marker id="aO" markerWidth="8" markerHeight="8" refX="7" refY="4" orient="auto">
    <path d="M0,1 L7,4 L0,7 z" fill="#bf5600"/></marker>
  <marker id="aY" markerWidth="8" markerHeight="8" refX="7" refY="4" orient="auto">
    <path d="M0,1 L7,4 L0,7 z" fill="#e67e22"/></marker>
  <marker id="dL" markerWidth="8" markerHeight="8" refX="0" refY="4" orient="auto">
    <path d="M7,0.5 L0,4 L7,7.5" fill="none" stroke="#555" stroke-width="1.2"/></marker>
  <marker id="dR" markerWidth="8" markerHeight="8" refX="8" refY="4" orient="auto">
    <path d="M0,0.5 L8,4 L0,7.5" fill="none" stroke="#555" stroke-width="1.2"/></marker>
</defs><text x="600.0" y="26.0" text-anchor="middle" font-family="Arial" font-size="13" fill="#1a3a6b" font-weight="bold">PLAN VIEW (TOP) — SOLAR-POWERED SWRO DESALINATION — 20,000 L/DAY</text><text x="600.0" y="42.0" text-anchor="middle" font-family="Arial" font-size="9" fill="#555">Scale 1:60  |  40 ft ISO Container (12.19 × 2.44 m)  |  All dimensions in metres</text><rect x="96.0" y="130.0" width="124.0" height="151.3" fill="#e8eaf6" opacity="0.55"/><rect x="220.0" y="130.0" width="155.0" height="151.3" fill="#fce4ec" opacity="0.55"/><rect x="375.0" y="130.0" width="403.0" height="151.3" fill="#e3f2fd" opacity="0.55"/><rect x="778.0" y="130.0" width="73.8" height="151.3" fill="#e8f5e9" opacity="0.55"/><rect x="96.0" y="130.0" width="755.8" height="151.3" fill="none" stroke="#1a3a6b" stroke-width="2.5"/><line x1="220.0" y1="130.0" x2="220.0" y2="281.3" stroke="#999" stroke-width="1" stroke-dasharray="6,3"/><line x1="375.0" y1="130.0" x2="375.0" y2="281.3" stroke="#999" stroke-width="1" stroke-dasharray="6,3"/><line x1="778.0" y1="130.0" x2="778.0" y2="281.3" stroke="#999" stroke-width="1" stroke-dasharray="6,3"/><line x1="442.2" y1="197.0" x2="442.2" y2="214.3" stroke="#1565c0" stroke-width="0.9" opacity="0.55"/><line x1="509.3" y1="197.0" x2="509.3" y2="214.3" stroke="#1565c0" stroke-width="0.9" opacity="0.55"/><line x1="576.5" y1="197.0" x2="576.5" y2="214.3" stroke="#1565c0" stroke-width="0.9" opacity="0.55"/><line x1="643.7" y1="197.0" x2="643.7" y2="214.3" stroke="#1565c0" stroke-width="0.9" opacity="0.55"/><line x1="710.8" y1="197.0" x2="710.8" y2="214.3" stroke="#1565c0" stroke-width="0.9" opacity="0.55"/><text x="158.0" y="297.3" text-anchor="middle" font-family="Arial" font-size="8" fill="#4527a0">ZONE A: Pre-Treatment</text><text x="297.5" y="297.3" text-anchor="middle" font-family="Arial" font-size="8" fill="#c62828">ZONE B: HP + PX</text><text x="576.5" y="297.3" text-anchor="middle" font-family="Arial" font-size="8" fill="#1565c0">ZONE C: RO Vessel (6.5 m)</text><text x="815.2" y="297.3" text-anchor="middle" font-family="Arial" font-size="8" fill="#2e7d32">ZONE D</text><rect x="102.2" y="133.7" width="235.6" height="32.2" fill="#e8f5e9" stroke="#2e7d32" stroke-width="1.4" rx="3"/><text x="220.0" y="147.7" text-anchor="middle" font-family="Arial" font-size="9" fill="#1b5e20" font-weight="bold">LFP BATTERY BANK — BAT-01</text><text x="220.0" y="158.7" text-anchor="middle" font-family="Arial" font-size="7.5" fill="#2e7d32">87.5 kWh | 48 V | 4 racks × 1.0 m  |  CATL 280 Ah prismatic | 80% DoD</text><text x="220.0" y="169.7" text-anchor="middle" font-family="Arial" font-size="7" fill="#388e3c">1-day autonomy | BMS: Daly 48V 200A</text><rect x="232.4" y="171.5" width="42.2" height="34.7" fill="#f3e5f5" stroke="#6a1b9a" stroke-width="1.2" rx="3"/><text x="253.5" y="184.5" text-anchor="middle" font-family="Arial" font-size="8.5" fill="#4a148c" font-weight="bold">INV-01</text><text x="253.5" y="196.5" text-anchor="middle" font-family="Arial" font-size="7.5" fill="#6a1b9a">Victron 48/8000</text><text x="253.5" y="207.5" text-anchor="middle" font-family="Arial" font-size="7" fill="#6a1b9a">8 kW | MPPT</text><rect x="102.2" y="171.5" width="31.0" height="27.9" fill="#fce4ec" stroke="#ad1457" stroke-width="1" stroke-dasharray="5,2" rx="3"/><text x="117.7" y="185.5" text-anchor="middle" font-family="Arial" font-size="8.5" fill="#880e4f" font-weight="bold">D-01</text><text x="117.7" y="197.5" text-anchor="middle" font-family="Arial" font-size="7.5" fill="#ad1457">Antiscalant</text><text x="117.7" y="208.5" text-anchor="middle" font-family="Arial" font-size="7" fill="#ad1457">&lt;5 ppm</text><rect x="138.2" y="180.8" width="62.0" height="80.6" fill="#ede7f6" stroke="#5c35cc" stroke-width="1.6" rx="4"/><text x="169.2" y="208.7" text-anchor="middle" font-family="Arial" font-size="9" fill="#4527a0" font-weight="bold">UF PRE-TX</text><text x="169.2" y="218.0" text-anchor="middle" font-family="Arial" font-size="8.5" fill="#512da8">F-01</text><text x="169.2" y="227.3" text-anchor="middle" font-family="Arial" font-size="7" fill="#5c35cc">Dow FilmTec 0.02 µm</text><text x="169.2" y="236.6" text-anchor="middle" font-family="Arial" font-size="7" fill="#5c35cc">SDI &lt;3 | PVDF</text><circle cx="146.8" cy="173.4" r="10" fill="white" stroke="#333" stroke-width="1.2"/><text x="146.8" y="177.2" text-anchor="middle" font-family="Arial" font-size="7" fill="#111">PT-01</text><line x1="146.8" y1="183.4" x2="146.8" y2="180.8" stroke="#555" stroke-width="0.9" stroke-dasharray="3,2"/><circle cx="181.6" cy="173.4" r="10" fill="white" stroke="#333" stroke-width="1.2"/><text x="181.6" y="177.2" text-anchor="middle" font-family="Arial" font-size="7" fill="#111">AT-01</text><line x1="181.6" y1="183.4" x2="181.6" y2="180.8" stroke="#555" stroke-width="0.9" stroke-dasharray="3,2"/><circle cx="119.6" cy="224.2" r="22" fill="#fff8e1" stroke="#f57f17" stroke-width="1.8"/><text x="119.6" y="219.2" text-anchor="middle" font-family="Arial" font-size="8.5" fill="#e65100" font-weight="bold">P-01</text><text x="119.6" y="231.2" text-anchor="middle" font-family="Arial" font-size="7.5" fill="#e65100">LP 2.5 bar</text><line x1="117.7" y1="199.4" x2="117.7" y2="202.2" stroke="#ad1457" stroke-width="1.2" stroke-dasharray="4,2" marker-end="url(#aY)"/><circle cx="264.6" cy="223.0" r="26" fill="#ffebee" stroke="#c62828" stroke-width="2.2"/><text x="264.6" y="215.0" text-anchor="middle" font-family="Arial" font-size="9" fill="#b71c1c" font-weight="bold">P-02</text><text x="264.6" y="228.0" text-anchor="middle" font-family="Arial" font-size="8" fill="#c62828">HP 60 bar</text><text x="264.6" y="239.0" text-anchor="middle" font-family="Arial" font-size="7" fill="#c62828">5.5 kW | MTRE</text><rect x="249.8" y="170.9" width="29.8" height="14.9" fill="#fff3e0" stroke="#e65100" stroke-width="0.9" rx="2"/><text x="264.6" y="176.9" text-anchor="middle" font-family="Arial" font-size="7.5" fill="#e65100" font-weight="bold">PSV-01</text><text x="264.6" y="182.8" text-anchor="middle" font-family="Arial" font-size="7" fill="#e65100">set 70 bar</text><line x1="264.6" y1="185.8" x2="264.6" y2="197.0" stroke="#e65100" stroke-width="0.8" stroke-dasharray="3,2"/><circle cx="264.6" cy="161.0" r="10" fill="white" stroke="#333" stroke-width="1.2"/><text x="264.6" y="164.8" text-anchor="middle" font-family="Arial" font-size="7" fill="#111">PT-02</text><line x1="264.6" y1="171.0" x2="264.6" y2="170.9" stroke="#555" stroke-width="0.9" stroke-dasharray="3,2"/><rect x="297.5" y="178.4" width="55.8" height="55.8" fill="#e3f2fd" stroke="#0277bd" stroke-width="1.6" stroke-dasharray="7,2" rx="5"/><text x="325.4" y="195.4" text-anchor="middle" font-family="Arial" font-size="9" fill="#01579b" font-weight="bold">PX DEVICE</text><text x="325.4" y="208.4" text-anchor="middle" font-family="Arial" font-size="8.5" fill="#0277bd">E-01</text><text x="325.4" y="221.4" text-anchor="middle" font-family="Arial" font-size="8" fill="#0277bd">η = 96%</text><text x="325.4" y="233.4" text-anchor="middle" font-family="Arial" font-size="7.5" fill="#0277bd">ERI PX-70</text><text x="325.4" y="244.4" text-anchor="middle" font-family="Arial" font-size="7" fill="#0277bd">isobaric rotary</text><line x1="56.0" y1="224.2" x2="96.0" y2="224.2" stroke="#1565c0" stroke-width="4" marker-end="url(#aC)"/><text x="76.0" y="212.2" text-anchor="middle" font-family="Arial" font-size="7.5" fill="#1565c0" font-weight="bold">SW IN</text><text x="76.0" y="226.2" text-anchor="middle" font-family="Arial" font-size="7" fill="#1565c0">44.4 m³/d</text><text x="76.0" y="237.2" text-anchor="middle" font-family="Arial" font-size="6.5" fill="#1565c0">35 g/L NaCl</text><line x1="96.0" y1="224.2" x2="97.6" y2="224.2" stroke="#1565c0" stroke-width="3" marker-end="url(#aC)"/><line x1="141.6" y1="224.2" x2="138.2" y2="224.2" stroke="#1565c0" stroke-width="3" marker-end="url(#aC)"/><line x1="200.2" y1="224.2" x2="238.6" y2="224.2" stroke="#1565c0" stroke-width="3" marker-end="url(#aC)"/><line x1="290.6" y1="223.0" x2="375.0" y2="223.0" stroke="#1565c0" stroke-width="6" marker-end="url(#aC)"/><rect x="313.0" y="216.8" width="43.4" height="9.9" fill="#c62828" rx="3"/><text x="334.7" y="223.0" text-anchor="middle" font-family="Arial" font-size="7" fill="white" font-weight="bold">HP 60 bar →</text><rect x="375.0" y="195.1" width="403.0" height="21.1" fill="#bbdefb" stroke="#1565c0" stroke-width="2.2" rx="9"/><ellipse cx="375.0" cy="205.6" rx="8" ry="10.5" fill="#1565c0"/><ellipse cx="778.0" cy="205.6" rx="8" ry="10.5" fill="#1565c0"/><text x="576.5" y="205.1" text-anchor="middle" font-family="Arial" font-size="9" fill="#0d47a1" font-weight="bold">V-01 — RO PRESSURE VESSEL</text><text x="576.5" y="217.1" text-anchor="middle" font-family="Arial" font-size="7" fill="#1565c0">6 × Filmtec SW30XHR-400i  |  8" dia. (203 mm OD)  |  6 × 1016 mm elements  |  6.5 m total</text><text x="576.5" y="228.1" text-anchor="middle" font-family="Arial" font-size="7" fill="#1565c0">Active area: 223 m²  |  Flux J = 20 LMH  |  CP = 1.49  |  NDP = 17.7 bar  |  Recovery 45%</text><circle cx="406.0" cy="181.1" r="10" fill="white" stroke="#333" stroke-width="1.2"/><text x="406.0" y="184.9" text-anchor="middle" font-family="Arial" font-size="7" fill="#111">PI-01</text><line x1="406.0" y1="191.1" x2="406.0" y2="195.1" stroke="#555" stroke-width="0.9" stroke-dasharray="3,2"/><circle cx="468.0" cy="181.1" r="10" fill="white" stroke="#333" stroke-width="1.2"/><text x="468.0" y="184.9" text-anchor="middle" font-family="Arial" font-size="7" fill="#111">PT-03</text><line x1="468.0" y1="191.1" x2="468.0" y2="195.1" stroke="#555" stroke-width="0.9" stroke-dasharray="3,2"/><circle cx="685.0" cy="181.1" r="10" fill="white" stroke="#333" stroke-width="1.2"/><text x="685.0" y="184.9" text-anchor="middle" font-family="Arial" font-size="7" fill="#111">PI-02</text><line x1="685.0" y1="191.1" x2="685.0" y2="195.1" stroke="#555" stroke-width="0.9" stroke-dasharray="3,2"/><line x1="576.5" y1="195.1" x2="576.5" y2="168.4" stroke="#2e7d32" stroke-width="3" marker-end="url(#aG)"/><circle cx="504.5" cy="156.4" r="10" fill="white" stroke="#333" stroke-width="1.2"/><text x="504.5" y="160.2" text-anchor="middle" font-family="Arial" font-size="7" fill="#111">FI-02</text><line x1="504.5" y1="166.4" x2="504.5" y2="168.4" stroke="#555" stroke-width="0.9" stroke-dasharray="3,2"/><circle cx="576.5" cy="156.4" r="10" fill="white" stroke="#333" stroke-width="1.2"/><text x="576.5" y="160.2" text-anchor="middle" font-family="Arial" font-size="7" fill="#111">AT-02</text><line x1="576.5" y1="166.4" x2="576.5" y2="168.4" stroke="#555" stroke-width="0.9" stroke-dasharray="3,2"/><line x1="576.5" y1="168.4" x2="778.0" y2="168.4" stroke="#2e7d32" stroke-width="2.5" marker-end="url(#aG)"/><text x="677.2" y="162.4" text-anchor="middle" font-family="Arial" font-size="8" fill="#1b5e20">20,000 L/day freshwater permeate →</text><rect x="781.1" y="138.7" width="62.0" height="71.3" fill="#e8f5e9" stroke="#2e7d32" stroke-width="1.6" rx="4"/><text x="812.1" y="156.7" text-anchor="middle" font-family="Arial" font-size="9.5" fill="#1b5e20" font-weight="bold">T-01</text><text x="812.1" y="170.7" text-anchor="middle" font-family="Arial" font-size="8.5" fill="#1b5e20">PERMEATE</text><text x="812.1" y="183.7" text-anchor="middle" font-family="Arial" font-size="8.5" fill="#1b5e20">TANK</text><text x="812.1" y="198.7" text-anchor="middle" font-family="Arial" font-size="8" fill="#2e7d32">20,000 L/d</text><text x="812.1" y="211.7" text-anchor="middle" font-family="Arial" font-size="7.5" fill="#2e7d32">&lt;500 ppm TDS</text><circle cx="795.1" cy="124.7" r="10" fill="white" stroke="#333" stroke-width="1.2"/><text x="795.1" y="128.5" text-anchor="middle" font-family="Arial" font-size="7" fill="#111">LI-01</text><line x1="795.1" y1="134.7" x2="795.1" y2="138.7" stroke="#555" stroke-width="0.9" stroke-dasharray="3,2"/><line x1="778.0" y1="205.6" x2="847.1" y2="205.6" stroke="#bf5600" stroke-width="4.5" marker-end="url(#aO)"/><line x1="812.1" y1="205.6" x2="812.1" y2="313.3" stroke="#bf5600" stroke-width="2"/><line x1="812.1" y1="313.3" x2="325.4" y2="313.3" stroke="#bf5600" stroke-width="2" marker-end="url(#aO)"/><text x="568.8" y="308.3" text-anchor="middle" font-family="Arial" font-size="7.5" fill="#bf5600">← brine → PX energy recovery  |  24,400 L/d @ 63.6 g/L  |  high-pressure side</text><line x1="297.5" y1="224.2" x2="290.6" y2="224.2" stroke="#0277bd" stroke-width="2" stroke-dasharray="6,2" marker-end="url(#aC)"/><text x="294.1" y="219.3" text-anchor="middle" font-family="Arial" font-size="7" fill="#0277bd">PX → HP suction</text><line x1="847.1" y1="205.6" x2="885.1" y2="205.6" stroke="#bf5600" stroke-width="3" marker-end="url(#aO)"/><text x="891.1" y="197.6" text-anchor="start" font-family="Arial" font-size="7.5" fill="#bf5600" font-weight="bold">BRINE OUT</text><text x="891.1" y="210.6" text-anchor="start" font-family="Arial" font-size="7" fill="#bf5600">63.6 g/L</text><line x1="96.0" y1="333.3" x2="96.0" y2="328.3" stroke="#333" stroke-width="0.8"/><line x1="851.8" y1="333.3" x2="851.8" y2="328.3" stroke="#333" stroke-width="0.8"/><line x1="96.0" y1="328.3" x2="851.8" y2="328.3" stroke="#333" stroke-width="0.8" marker-start="url(#dL)" marker-end="url(#dR)"/><text x="473.9" y="325.3" text-anchor="middle" font-size="8.5" font-family="Arial" fill="#333">12.19 m  (container overall length)</text><line x1="96.0" y1="349.3" x2="96.0" y2="344.3" stroke="#4527a0" stroke-width="0.8"/><line x1="220.0" y1="349.3" x2="220.0" y2="344.3" stroke="#4527a0" stroke-width="0.8"/><line x1="96.0" y1="344.3" x2="220.0" y2="344.3" stroke="#4527a0" stroke-width="0.8" marker-start="url(#dL)" marker-end="url(#dR)"/><text x="158.0" y="341.3" text-anchor="middle" font-size="7.5" font-family="Arial" fill="#4527a0">2.0 m (Zone A)</text><line x1="220.0" y1="349.3" x2="220.0" y2="344.3" stroke="#c62828" stroke-width="0.8"/><line x1="375.0" y1="349.3" x2="375.0" y2="344.3" stroke="#c62828" stroke-width="0.8"/><line x1="220.0" y1="344.3" x2="375.0" y2="344.3" stroke="#c62828" stroke-width="0.8" marker-start="url(#dL)" marker-end="url(#dR)"/><text x="297.5" y="341.3" text-anchor="middle" font-size="7.5" font-family="Arial" fill="#c62828">2.5 m (Zone B)</text><line x1="375.0" y1="349.3" x2="375.0" y2="344.3" stroke="#1565c0" stroke-width="0.8"/><line x1="778.0" y1="349.3" x2="778.0" y2="344.3" stroke="#1565c0" stroke-width="0.8"/><line x1="375.0" y1="344.3" x2="778.0" y2="344.3" stroke="#1565c0" stroke-width="0.8" marker-start="url(#dL)" marker-end="url(#dR)"/><text x="576.5" y="341.3" text-anchor="middle" font-size="7.5" font-family="Arial" fill="#1565c0">6.5 m — RO vessel zone</text><line x1="778.0" y1="349.3" x2="778.0" y2="344.3" stroke="#2e7d32" stroke-width="0.8"/><line x1="851.8" y1="349.3" x2="851.8" y2="344.3" stroke="#2e7d32" stroke-width="0.8"/><line x1="778.0" y1="344.3" x2="851.8" y2="344.3" stroke="#2e7d32" stroke-width="0.8" marker-start="url(#dL)" marker-end="url(#dR)"/><text x="814.9" y="341.3" text-anchor="middle" font-size="7.5" font-family="Arial" fill="#2e7d32">1.2 m (Zone D)</text><line x1="38.0" y1="130.0" x2="33.0" y2="130.0" stroke="#333" stroke-width="0.8"/><line x1="38.0" y1="281.3" x2="33.0" y2="281.3" stroke="#333" stroke-width="0.8"/><line x1="33.0" y1="130.0" x2="33.0" y2="281.3" stroke="#333" stroke-width="0.8" marker-start="url(#dL)" marker-end="url(#dR)"/><text x="29.0" y="205.6" text-anchor="middle" font-size="8.5" font-family="Arial" fill="#333" transform="rotate(-90 29.0 205.6)">2.44 m (container width)</text><line x1="375.0" y1="98.0" x2="375.0" y2="93.0" stroke="#1565c0" stroke-width="0.8"/><line x1="778.0" y1="98.0" x2="778.0" y2="93.0" stroke="#1565c0" stroke-width="0.8"/><line x1="375.0" y1="93.0" x2="778.0" y2="93.0" stroke="#1565c0" stroke-width="0.8" marker-start="url(#dL)" marker-end="url(#dR)"/><text x="576.5" y="90.0" text-anchor="middle" font-size="7.5" font-family="Arial" fill="#1565c0">6 × 1016 mm elements — Filmtec SW30XHR-400i  (8" OD)</text><rect x="14" y="666.0" width="460" height="62" fill="#f5f5f5" stroke="#ccc" stroke-width="0.8" rx="2"/><text x="244.0" y="679.0" text-anchor="middle" font-family="Arial" font-size="9" fill="#333" font-weight="bold">FLOW LEGEND</text><line x1="24" y1="694.0" x2="68" y2="694.0" stroke="#1565c0" stroke-width="4"/><text x="73.0" y="698.0" text-anchor="start" font-family="Arial" font-size="8" fill="#333">Feed / HP seawater (process pipe)</text><line x1="24" y1="714.0" x2="68" y2="714.0" stroke="#2e7d32" stroke-width="4"/><text x="73.0" y="718.0" text-anchor="start" font-family="Arial" font-size="8" fill="#333">Permeate — freshwater product</text><line x1="250" y1="694.0" x2="294" y2="694.0" stroke="#bf5600" stroke-width="4"/><text x="299.0" y="698.0" text-anchor="start" font-family="Arial" font-size="8" fill="#333">Brine reject  (24,400 L/d, 63.6 g/L)</text><line x1="250" y1="714.0" x2="294" y2="714.0" stroke="#ad1457" stroke-width="1.5" stroke-dasharray="5,2"/><text x="299.0" y="718.0" text-anchor="start" font-family="Arial" font-size="8" fill="#333">Chemical dosing (dashed)</text><rect x="488" y="666.0" width="696" height="62" fill="#f5f5f5" stroke="#ccc" stroke-width="0.8" rx="2"/><text x="836.0" y="679.0" text-anchor="middle" font-family="Arial" font-size="9" fill="#333" font-weight="bold">DESIGN BASIS</text><text x="496.0" y="694.0" text-anchor="start" font-family="Arial" font-size="7.5" fill="#333">Output: 20,000 L/d  |  Feed: 44.4 m³/d  |  Recovery: 45%  |  Brine: 24.4 m³/d  |  TDS reject >99.75%</text><text x="496.0" y="708.0" text-anchor="start" font-family="Arial" font-size="7.5" fill="#333">π_feed = 28.4 bar (van't Hoff)  |  ΔP = 60 bar  |  CP = 1.49  |  π_membrane = 42.3 bar  |  NDP = 17.7 bar</text><text x="496.0" y="722.0" text-anchor="start" font-family="Arial" font-size="7.5" fill="#333">SEC = 3.5 kWh/m³ (with PX η=96%)  |  E_day = 70 kWh  |  LFP battery = 87.5 kWh  |  PV = 14.8 kWp</text><rect x="8" y="736" width="1184" height="36" fill="#2c3e50"/><rect x="8" y="736" width="290" height="36" fill="#1a2b3c"/><text x="154" y="750" text-anchor="middle" font-family="Arial" font-size="9" font-weight="bold" fill="#f0f0f0">ARCHMEDIS TECHNICAL TRIAL — ROUND 2</text><text x="154" y="764" text-anchor="middle" font-family="Arial" font-size="8" fill="#bdc3c7">Candidate Submission | June 2026</text><text x="600" y="750" text-anchor="middle" font-family="Arial" font-size="12" font-weight="bold" fill="white">SOLAR SPRO SYSTEM — PLAN VIEW (TOP)</text><text x="600" y="765" text-anchor="middle" font-family="Arial" font-size="9" fill="#bdc3c7">Scale 1:60  |  40 ft ISO Container  |  All dims in metres</text><text x="1186" y="747" text-anchor="end" font-family="Arial" font-size="7.5" fill="#bdc3c7">DWG: ARCH-R2-CAD-001 | Rev A</text><text x="1186" y="758" text-anchor="end" font-family="Arial" font-size="7.5" fill="#bdc3c7">Scale: 1:60</text><text x="1186" y="769" text-anchor="end" font-family="Arial" font-size="7.5" fill="#bdc3c7">20,000 L/day SWRO</text></svg>