<?xml version="1.0" encoding="UTF-8"?><svg xmlns="http://www.w3.org/2000/svg" viewBox="0 0 1200 780" width="1200" height="780"><rect width="1200" height="780" fill="#f0f2f5"/><rect x="8" y="8" width="1184" height="724" fill="white" stroke="#333" stroke-width="1.5"/><defs>
  <marker id="aC" markerWidth="8" markerHeight="8" refX="7" refY="4" orient="auto">
    <path d="M0,1 L7,4 L0,7 z" fill="#1565c0"/></marker>
  <marker id="aG" markerWidth="8" markerHeight="8" refX="7" refY="4" orient="auto">
    <path d="M0,1 L7,4 L0,7 z" fill="#2e7d32"/></marker>
  <marker id="aO" markerWidth="8" markerHeight="8" refX="7" refY="4" orient="auto">
    <path d="M0,1 L7,4 L0,7 z" fill="#bf5600"/></marker>
  <marker id="aY" markerWidth="8" markerHeight="8" refX="7" refY="4" orient="auto">
    <path d="M0,1 L7,4 L0,7 z" fill="#e67e22"/></marker>
  <marker id="dL" markerWidth="8" markerHeight="8" refX="0" refY="4" orient="auto">
    <path d="M7,0.5 L0,4 L7,7.5" fill="none" stroke="#555" stroke-width="1.2"/></marker>
  <marker id="dR" markerWidth="8" markerHeight="8" refX="8" refY="4" orient="auto">
    <path d="M0,0.5 L8,4 L0,7.5" fill="none" stroke="#555" stroke-width="1.2"/></marker>
</defs><text x="600.0" y="26.0" text-anchor="middle" font-family="Arial" font-size="13" fill="#1a3a6b" font-weight="bold">FRONT ELEVATION (SIDE VIEW) — SOLAR-POWERED SWRO  20,000 L/DAY</text><text x="600.0" y="42.0" text-anchor="middle" font-family="Arial" font-size="9" fill="#555">Scale 1:50  |  40 ft ISO Container  |  All dimensions in metres  |  Ground line shown</text><rect x="90.0" y="72.0" width="707.0" height="150.2" fill="#f8faff" stroke="#1a3a6b" stroke-width="2.5"/><rect x="90.0" y="72.0" width="5" height="150.2" fill="#2c3e50"/><rect x="792.0" y="72.0" width="5" height="150.2" fill="#2c3e50"/><rect x="90.0" y="72.0" width="707.0" height="5.5" fill="#1a3a6b"/><rect x="90.0" y="216.7" width="707.0" height="5.5" fill="#1a3a6b"/><line x1="60.0" y1="222.2" x2="827.0" y2="222.2" stroke="#666" stroke-width="2" stroke-dasharray="10,5"/><text x="70.0" y="234.2" text-anchor="middle" font-family="Arial" font-size="8.5" fill="#666">G.L.</text><rect x="108.0" y="32.0" width="671.0" height="28" fill="#1e3a6b" stroke="#2980b9" stroke-width="1.3" rx="3"/><line x1="182.6" y1="32.0" x2="182.6" y2="60.0" stroke="#2980b9" stroke-width="0.5" opacity="0.5"/><line x1="257.1" y1="32.0" x2="257.1" y2="60.0" stroke="#2980b9" stroke-width="0.5" opacity="0.5"/><line x1="331.7" y1="32.0" x2="331.7" y2="60.0" stroke="#2980b9" stroke-width="0.5" opacity="0.5"/><line x1="406.2" y1="32.0" x2="406.2" y2="60.0" stroke="#2980b9" stroke-width="0.5" opacity="0.5"/><line x1="480.8" y1="32.0" x2="480.8" y2="60.0" stroke="#2980b9" stroke-width="0.5" opacity="0.5"/><line x1="555.3" y1="32.0" x2="555.3" y2="60.0" stroke="#2980b9" stroke-width="0.5" opacity="0.5"/><line x1="629.9" y1="32.0" x2="629.9" y2="60.0" stroke="#2980b9" stroke-width="0.5" opacity="0.5"/><line x1="704.5" y1="32.0" x2="704.5" y2="60.0" stroke="#2980b9" stroke-width="0.5" opacity="0.5"/><text x="443.5" y="50.0" text-anchor="middle" font-family="Arial" font-size="8" fill="#aed6f1" font-weight="bold">PV ARRAY — 37 × 400 W  |  14.8 kWp  |  72.9 m²  |  15° fixed tilt south  |  η = 21%</text><line x1="122.0" y1="72.0" x2="170.0" y2="60.0" stroke="#f39c12" stroke-width="1.2"/><text x="148.0" y="67.0" text-anchor="middle" font-family="Arial" font-size="7.5" fill="#f39c12">15°</text><rect x="102.8" y="86.5" width="41.8" height="20.3" fill="#d0d0d0" stroke="#888" stroke-width="0.9" rx="2"/><line x1="104.8" y1="91.5" x2="142.5" y2="91.5" stroke="#aaa" stroke-width="1.2"/><line x1="104.8" y1="95.3" x2="142.5" y2="95.3" stroke="#aaa" stroke-width="1.2"/><line x1="104.8" y1="99.2" x2="142.5" y2="99.2" stroke="#aaa" stroke-width="1.2"/><line x1="104.8" y1="103.0" x2="142.5" y2="103.0" stroke="#aaa" stroke-width="1.2"/><text x="123.6" y="118.8" text-anchor="middle" font-family="Arial" font-size="7" fill="#666">LOUVRE</text><rect x="721.0" y="86.5" width="41.8" height="20.3" fill="#d0d0d0" stroke="#888" stroke-width="0.9" rx="2"/><line x1="723.0" y1="91.5" x2="760.8" y2="91.5" stroke="#aaa" stroke-width="1.2"/><line x1="723.0" y1="95.3" x2="760.8" y2="95.3" stroke="#aaa" stroke-width="1.2"/><line x1="723.0" y1="99.2" x2="760.8" y2="99.2" stroke="#aaa" stroke-width="1.2"/><line x1="723.0" y1="103.0" x2="760.8" y2="103.0" stroke="#aaa" stroke-width="1.2"/><text x="741.9" y="118.8" text-anchor="middle" font-family="Arial" font-size="7" fill="#666">LOUVRE</text><rect x="733.8" y="130.0" width="43.5" height="89.9" fill="#b0bec5" stroke="#607d8b" stroke-width="1.3"/><line x1="733.8" y1="130.0" x2="777.3" y2="219.9" stroke="#607d8b" stroke-width="0.6"/><text x="755.5" y="174.9" text-anchor="middle" font-family="Arial" font-size="8" fill="#37474f">DOOR</text><rect x="97.0" y="76.6" width="226.2" height="39.4" fill="#e8f5e9" stroke="#2e7d32" stroke-width="1.3" stroke-dasharray="6,2" rx="3"/><text x="210.1" y="91.6" text-anchor="middle" font-family="Arial" font-size="8.5" fill="#1b5e20" font-weight="bold">LFP BATTERY — BAT-01  |  87.5 kWh  |  H ≈ 0.65 m</text><text x="210.1" y="104.2" text-anchor="middle" font-family="Arial" font-size="7.5" fill="#2e7d32">4 racks × 1.0 m  |  mounted 0.10 m above floor  |  CATL 280 Ah  |  48 V</text><rect x="94.6" y="124.2" width="89.9" height="95.7" fill="#ede7f6" stroke="#5c35cc" stroke-width="1.6" stroke-dasharray="6,2" rx="4"/><text x="139.6" y="154.8" text-anchor="middle" font-family="Arial" font-size="8.5" fill="#4527a0" font-weight="bold">UF PRE-TX</text><text x="139.6" y="172.1" text-anchor="middle" font-family="Arial" font-size="8" fill="#512da8">F-01</text><text x="139.6" y="187.4" text-anchor="middle" font-family="Arial" font-size="7.5" fill="#5c35cc">0.02 µm PVDF</text><text x="139.6" y="200.8" text-anchor="middle" font-family="Arial" font-size="7" fill="#5c35cc">H = 1.6 m | W = 1.5 m</text><ellipse cx="197.3" cy="206.6" rx="22" ry="15" fill="#fff8e1" stroke="#f57f17" stroke-width="1.8"/><text x="197.3" y="205.4" text-anchor="middle" font-family="Arial" font-size="8" fill="#e65100" font-weight="bold">P-01</text><text x="197.3" y="211.8" text-anchor="middle" font-family="Arial" font-size="7" fill="#e65100">LP</text><ellipse cx="255.3" cy="205.4" rx="24" ry="18" fill="#ffebee" stroke="#c62828" stroke-width="2.2"/><text x="255.3" y="203.7" text-anchor="middle" font-family="Arial" font-size="8.5" fill="#b71c1c" font-weight="bold">P-02</text><text x="255.3" y="210.0" text-anchor="middle" font-family="Arial" font-size="7.5" fill="#c62828">HP 60 bar</text><rect x="281.4" y="166.0" width="52.2" height="43.5" fill="#e3f2fd" stroke="#0277bd" stroke-width="1.3" stroke-dasharray="5,2" rx="4"/><text x="307.5" y="182.5" text-anchor="middle" font-family="Arial" font-size="8.5" fill="#01579b" font-weight="bold">PX — E-01</text><text x="307.5" y="192.1" text-anchor="middle" font-family="Arial" font-size="8" fill="#0277bd">η = 96%</text><text x="307.5" y="200.8" text-anchor="middle" font-family="Arial" font-size="7" fill="#0277bd">ERI PX-70</text><rect x="351.0" y="176.1" width="377.0" height="13.3" fill="#bbdefb" stroke="#1565c0" stroke-width="2.2" rx="8"/><ellipse cx="351.0" cy="182.8" rx="8" ry="6.7" fill="#1565c0"/><ellipse cx="728.0" cy="182.8" rx="8" ry="6.7" fill="#1565c0"/><line x1="413.8" y1="176.1" x2="413.8" y2="189.4" stroke="#1565c0" stroke-width="0.9" opacity="0.5"/><line x1="476.7" y1="176.1" x2="476.7" y2="189.4" stroke="#1565c0" stroke-width="0.9" opacity="0.5"/><line x1="539.5" y1="176.1" x2="539.5" y2="189.4" stroke="#1565c0" stroke-width="0.9" opacity="0.5"/><line x1="602.3" y1="176.1" x2="602.3" y2="189.4" stroke="#1565c0" stroke-width="0.9" opacity="0.5"/><line x1="665.2" y1="176.1" x2="665.2" y2="189.4" stroke="#1565c0" stroke-width="0.9" opacity="0.5"/><text x="539.5" y="179.8" text-anchor="middle" font-family="Arial" font-size="8.5" fill="#0d47a1" font-weight="bold">V-01 — RO PRESSURE VESSEL</text><text x="539.5" y="190.8" text-anchor="middle" font-family="Arial" font-size="7.5" fill="#1565c0">6 × Filmtec SW30XHR-400i  |  8" OD (203 mm)  |  CL at +680 mm from floor</text><rect x="369.0" y="189.4" width="22" height="32.8" fill="#607d8b"/><rect x="361.0" y="213.2" width="38" height="9" fill="#455a64"/><rect x="528.5" y="189.4" width="22" height="32.8" fill="#607d8b"/><rect x="520.5" y="213.2" width="38" height="9" fill="#455a64"/><rect x="688.0" y="189.4" width="22" height="32.8" fill="#607d8b"/><rect x="680.0" y="213.2" width="38" height="9" fill="#455a64"/><text x="380.0" y="218.7" text-anchor="middle" font-family="Arial" font-size="6.5" fill="white">SADDLE</text><line x1="182.8" y1="182.8" x2="351.0" y2="182.8" stroke="#1565c0" stroke-width="5.5" marker-end="url(#aC)"/><rect x="229.2" y="176.8" width="58.0" height="12" fill="#c62828" rx="2"/><text x="258.2" y="186.8" text-anchor="middle" font-family="Arial" font-size="7.5" fill="white" font-weight="bold">HP 60 bar →</text><line x1="539.5" y1="176.1" x2="539.5" y2="154.1" stroke="#2e7d32" stroke-width="2.5" marker-end="url(#aG)"/><line x1="539.5" y1="154.1" x2="736.7" y2="154.1" stroke="#2e7d32" stroke-width="2.2" marker-end="url(#aG)"/><text x="599.5" y="149.1" text-anchor="middle" font-family="Arial" font-size="8" fill="#1b5e20">permeate  20,000 L/d</text><rect x="736.7" y="121.3" width="52.2" height="95.7" fill="#e8f5e9" stroke="#2e7d32" stroke-width="1.6" rx="4"/><text x="762.8" y="150.0" text-anchor="middle" font-family="Arial" font-size="9" fill="#1b5e20" font-weight="bold">T-01</text><text x="762.8" y="167.2" text-anchor="middle" font-family="Arial" font-size="8" fill="#1b5e20">PERMEATE</text><text x="762.8" y="181.6" text-anchor="middle" font-family="Arial" font-size="7.5" fill="#2e7d32">H = 1.6 m</text><text x="762.8" y="195.9" text-anchor="middle" font-family="Arial" font-size="7.5" fill="#2e7d32">20,000 L/d</text><text x="762.8" y="209.3" text-anchor="middle" font-family="Arial" font-size="7" fill="#2e7d32">&lt;500 ppm</text><line x1="728.0" y1="182.8" x2="788.9" y2="182.8" stroke="#bf5600" stroke-width="3" marker-end="url(#aO)"/><text x="794.9" y="177.8" text-anchor="start" font-family="Arial" font-size="8" fill="#bf5600" font-weight="bold">BRINE OUT</text><line x1="90.0" y1="252.2" x2="90.0" y2="247.2" stroke="#333" stroke-width="0.8"/><line x1="797.0" y1="252.2" x2="797.0" y2="247.2" stroke="#333" stroke-width="0.8"/><line x1="90.0" y1="247.2" x2="797.0" y2="247.2" stroke="#333" stroke-width="0.8" marker-start="url(#dL)" marker-end="url(#dR)"/><text x="443.5" y="244.2" text-anchor="middle" font-size="8.5" font-family="Arial" fill="#333">12.19 m  (container overall length)</text><line x1="351.0" y1="270.2" x2="351.0" y2="265.2" stroke="#1565c0" stroke-width="0.8"/><line x1="728.0" y1="270.2" x2="728.0" y2="265.2" stroke="#1565c0" stroke-width="0.8"/><line x1="351.0" y1="265.2" x2="728.0" y2="265.2" stroke="#1565c0" stroke-width="0.8" marker-start="url(#dL)" marker-end="url(#dR)"/><text x="539.5" y="262.2" text-anchor="middle" font-size="8" font-family="Arial" fill="#1565c0">6.5 m  (RO vessel zone)</text><line x1="32.0" y1="72.0" x2="27.0" y2="72.0" stroke="#333" stroke-width="0.8"/><line x1="32.0" y1="222.2" x2="27.0" y2="222.2" stroke="#333" stroke-width="0.8"/><line x1="27.0" y1="72.0" x2="27.0" y2="222.2" stroke="#333" stroke-width="0.8" marker-start="url(#dL)" marker-end="url(#dR)"/><text x="23.0" y="147.1" text-anchor="middle" font-size="8.5" font-family="Arial" fill="#333" transform="rotate(-90 23.0 147.1)">2.59 m  (container height)</text><line x1="52.0" y1="222.2" x2="47.0" y2="222.2" stroke="#1565c0" stroke-width="0.8"/><line x1="52.0" y1="182.8" x2="47.0" y2="182.8" stroke="#1565c0" stroke-width="0.8"/><line x1="47.0" y1="222.2" x2="47.0" y2="182.8" stroke="#1565c0" stroke-width="0.8" marker-start="url(#dL)" marker-end="url(#dR)"/><text x="43.0" y="202.5" text-anchor="middle" font-size="7.5" font-family="Arial" fill="#1565c0" transform="rotate(-90 43.0 202.5)">0.68 m  CL</text><line x1="780.0" y1="176.1" x2="775.0" y2="176.1" stroke="#1565c0" stroke-width="0.8"/><line x1="780.0" y1="189.4" x2="775.0" y2="189.4" stroke="#1565c0" stroke-width="0.8"/><line x1="775.0" y1="176.1" x2="775.0" y2="189.4" stroke="#1565c0" stroke-width="0.8" marker-start="url(#dL)" marker-end="url(#dR)"/><text x="771.0" y="182.8" text-anchor="middle" font-size="7" font-family="Arial" fill="#1565c0" transform="rotate(-90 771.0 182.8)">203 mm OD</text><line x1="807.0" y1="72.0" x2="829.0" y2="72.0" stroke="#333" stroke-width="0.9"/><text x="832.0" y="75.5" text-anchor="start" font-family="Arial" font-size="7.5" fill="#333">+2590 mm (roof)</text><line x1="807.0" y1="182.8" x2="829.0" y2="182.8" stroke="#1565c0" stroke-width="0.9"/><text x="832.0" y="186.3" text-anchor="start" font-family="Arial" font-size="7.5" fill="#1565c0">+680 mm (RO vessel CL)</text><line x1="807.0" y1="222.2" x2="829.0" y2="222.2" stroke="#666" stroke-width="0.9"/><text x="832.0" y="225.7" text-anchor="start" font-family="Arial" font-size="7.5" fill="#666">±0 mm (floor / G.L.)</text><rect x="14" y="661.0" width="1172" height="67" fill="#f5f5f5" stroke="#ccc" stroke-width="0.8" rx="2"/><text x="600.0" y="674.0" text-anchor="middle" font-family="Arial" font-size="9" fill="#333" font-weight="bold">CONSTRUCTION NOTES</text><text x="22.0" y="688.0" text-anchor="start" font-family="Arial" font-size="8" fill="#333">1. HP piping: DN50 seamless SS316L, PN 100 bar, butt-welded. LP piping: DN80 HDPE PE100 PN10 flanged.</text><text x="22.0" y="702.0" text-anchor="start" font-family="Arial" font-size="8" fill="#333">2. Vessel saddle supports: SS304 formed saddle, grouted baseplate, 3 off at 5.0 m, 7.75 m, 10.5 m from inlet end.</text><text x="22.0" y="716.0" text-anchor="start" font-family="Arial" font-size="8" fill="#333">3. Container: 40 ft ISO Corten steel, galvanised interior. Louvres: 700 × 350 mm stainless mesh, both ends. Door: outlet end.</text><rect x="8" y="736" width="1184" height="36" fill="#2c3e50"/><rect x="8" y="736" width="290" height="36" fill="#1a2b3c"/><text x="154" y="750" text-anchor="middle" font-family="Arial" font-size="9" font-weight="bold" fill="#f0f0f0">ARCHMEDIS TECHNICAL TRIAL — ROUND 2</text><text x="154" y="764" text-anchor="middle" font-family="Arial" font-size="8" fill="#bdc3c7">Candidate Submission | June 2026</text><text x="600" y="750" text-anchor="middle" font-family="Arial" font-size="12" font-weight="bold" fill="white">SOLAR SPRO SYSTEM — FRONT ELEVATION (SIDE VIEW)</text><text x="600" y="765" text-anchor="middle" font-family="Arial" font-size="9" fill="#bdc3c7">Scale 1:50  |  40 ft ISO Container  |  All dims in mm unless noted</text><text x="1186" y="747" text-anchor="end" font-family="Arial" font-size="7.5" fill="#bdc3c7">DWG: ARCH-R2-CAD-002 | Rev A</text><text x="1186" y="758" text-anchor="end" font-family="Arial" font-size="7.5" fill="#bdc3c7">Scale: 1:50</text><text x="1186" y="769" text-anchor="end" font-family="Arial" font-size="7.5" fill="#bdc3c7">20,000 L/day SWRO</text></svg>