<?xml version="1.0" encoding="UTF-8"?><svg xmlns="http://www.w3.org/2000/svg" viewBox="0 0 1200 780" width="1200" height="780"><rect width="1200" height="780" fill="#f0f2f5"/><rect x="8" y="8" width="1184" height="724" fill="white" stroke="#333" stroke-width="1.5"/><defs>
  <marker id="aC" markerWidth="8" markerHeight="8" refX="7" refY="4" orient="auto">
    <path d="M0,1 L7,4 L0,7 z" fill="#1565c0"/></marker>
  <marker id="aG" markerWidth="8" markerHeight="8" refX="7" refY="4" orient="auto">
    <path d="M0,1 L7,4 L0,7 z" fill="#2e7d32"/></marker>
  <marker id="aO" markerWidth="8" markerHeight="8" refX="7" refY="4" orient="auto">
    <path d="M0,1 L7,4 L0,7 z" fill="#bf5600"/></marker>
  <marker id="aY" markerWidth="8" markerHeight="8" refX="7" refY="4" orient="auto">
    <path d="M0,1 L7,4 L0,7 z" fill="#e67e22"/></marker>
  <marker id="dL" markerWidth="8" markerHeight="8" refX="0" refY="4" orient="auto">
    <path d="M7,0.5 L0,4 L7,7.5" fill="none" stroke="#555" stroke-width="1.2"/></marker>
  <marker id="dR" markerWidth="8" markerHeight="8" refX="8" refY="4" orient="auto">
    <path d="M0,0.5 L8,4 L0,7.5" fill="none" stroke="#555" stroke-width="1.2"/></marker>
</defs><text x="600.0" y="26.0" text-anchor="middle" font-family="Arial" font-size="13" fill="#1a3a6b" font-weight="bold">END ELEVATION (INLET FACE) — SOLAR-POWERED SWRO  20,000 L/DAY</text><text x="600.0" y="42.0" text-anchor="middle" font-family="Arial" font-size="9" fill="#555">Scale 1:20  |  Inlet (west) End of 40 ft ISO Container  |  All dimensions in metres</text><rect x="417.0" y="62.0" width="366.0" height="388.5" fill="#f8faff" stroke="#1a3a6b" stroke-width="2.5"/><rect x="417.0" y="62.0" width="9" height="388.5" fill="#2c3e50"/><rect x="774.0" y="62.0" width="9" height="388.5" fill="#2c3e50"/><rect x="417.0" y="62.0" width="366.0" height="7" fill="#1a3a6b"/><rect x="417.0" y="443.5" width="366.0" height="7" fill="#1a3a6b"/><line x1="392.0" y1="450.5" x2="808.0" y2="450.5" stroke="#666" stroke-width="2" stroke-dasharray="8,4"/><text x="399.0" y="463.5" text-anchor="middle" font-family="Arial" font-size="9" fill="#666">G.L.</text><line x1="439.0" y1="52.0" x2="761.0" y2="24.0" stroke="#1e3a6b" stroke-width="5"/><text x="600.0" y="18.0" text-anchor="middle" font-family="Arial" font-size="8.5" fill="#1e3a6b">PV PANELS (edge-on, 15° tilt south)  |  37 × 400 W = 14.8 kWp</text><path d="M 439.0 52.0 A 28 28 0 0 0 467.0 52.0" stroke="#f39c12" fill="none" stroke-width="1.2"/><text x="455.0" y="57.0" text-anchor="middle" font-family="Arial" font-size="8" fill="#f39c12">15°</text><circle cx="417.0" cy="375.5" r="10" fill="#1565c0" stroke="#0d47a1" stroke-width="1.8"/><circle cx="417.0" cy="375.5" r="4" fill="white"/><text x="405.0" y="361.5" text-anchor="end" font-family="Arial" font-size="8.5" fill="#1565c0" font-weight="bold">SW INLET →</text><text x="405.0" y="375.5" text-anchor="end" font-family="Arial" font-size="8" fill="#1565c0">44.4 m³/day</text><text x="405.0" y="388.5" text-anchor="end" font-family="Arial" font-size="7.5" fill="#1565c0">DN80 SS316L</text><text x="405.0" y="400.5" text-anchor="end" font-family="Arial" font-size="7" fill="#1565c0">PN10 flanged</text><circle cx="783.0" cy="405.5" r="7" fill="#333" stroke="#222" stroke-width="1.2"/><text x="797.0" y="408.5" text-anchor="start" font-family="Arial" font-size="7.5" fill="#333">DC cable</text><text x="797.0" y="419.5" text-anchor="start" font-family="Arial" font-size="7.5" fill="#333">conduit</text><rect x="432.0" y="194.0" width="157.5" height="240.0" fill="#ede7f6" stroke="#5c35cc" stroke-width="1.8" stroke-dasharray="9,3" rx="5"/><text x="510.8" y="261.2" text-anchor="middle" font-family="Arial" font-size="10" fill="#4527a0" font-weight="bold">UF PRE-TX</text><text x="510.8" y="297.2" text-anchor="middle" font-family="Arial" font-size="9.5" fill="#512da8">F-01</text><text x="510.8" y="328.4" text-anchor="middle" font-family="Arial" font-size="8.5" fill="#5c35cc">0.02 µm PVDF</text><text x="510.8" y="357.2" text-anchor="middle" font-family="Arial" font-size="8" fill="#5c35cc">Hollow fibre</text><text x="510.8" y="383.6" text-anchor="middle" font-family="Arial" font-size="8" fill="#5c35cc">SDI &lt;3</text><text x="510.8" y="410.0" text-anchor="middle" font-family="Arial" font-size="7.5" fill="#5c35cc">W × H: 1.05 × 1.60 m</text><circle cx="679.5" cy="416.0" r="30" fill="#fff8e1" stroke="#f57f17" stroke-width="2.2"/><text x="679.5" y="410.0" text-anchor="middle" font-family="Arial" font-size="10" fill="#e65100" font-weight="bold">P-01</text><text x="679.5" y="424.0" text-anchor="middle" font-family="Arial" font-size="8.5" fill="#e65100">LP | 2.5 bar</text><text x="679.5" y="436.0" text-anchor="middle" font-family="Arial" font-size="7.5" fill="#e65100">1.85 m³/h</text><rect x="427.5" y="72.5" width="345.0" height="97.5" fill="#e8f5e9" stroke="#2e7d32" stroke-width="1.8" stroke-dasharray="8,3" rx="4"/><text x="600.0" y="106.6" text-anchor="middle" font-family="Arial" font-size="10" fill="#1b5e20" font-weight="bold">LFP BATTERY — BAT-01</text><text x="600.0" y="131.0" text-anchor="middle" font-family="Arial" font-size="9" fill="#2e7d32">87.5 kWh  |  48 V  |  4 racks</text><text x="600.0" y="152.4" text-anchor="middle" font-family="Arial" font-size="8.5" fill="#2e7d32">W × H: 2.30 × 0.65 m</text><rect x="657.0" y="179.0" width="114.0" height="108.0" fill="#f3e5f5" stroke="#6a1b9a" stroke-width="1.6" stroke-dasharray="7,3" rx="4"/><text x="714.0" y="213.6" text-anchor="middle" font-family="Arial" font-size="10" fill="#4a148c" font-weight="bold">INV-01</text><text x="714.0" y="236.2" text-anchor="middle" font-family="Arial" font-size="8.5" fill="#6a1b9a">Victron 48/8000</text><text x="714.0" y="256.8" text-anchor="middle" font-family="Arial" font-size="8" fill="#6a1b9a">8 kW AC | MPPT</text><text x="714.0" y="274.0" text-anchor="middle" font-family="Arial" font-size="7.5" fill="#6a1b9a">150V / 100A</text><circle cx="600.0" cy="348.5" r="15.2" fill="#bbdefb" stroke="#1565c0" stroke-width="2.2"/><circle cx="600.0" cy="348.5" r="6.8" fill="#e3f2fd" stroke="#1565c0" stroke-width="0.8"/><text x="600.0" y="377.6" text-anchor="middle" font-family="Arial" font-size="8" fill="#0d47a1" font-weight="bold">V-01  8" OD</text><text x="600.0" y="389.6" text-anchor="middle" font-family="Arial" font-size="7.5" fill="#1565c0">CL at +680 mm</text><line x1="417.0" y1="480.5" x2="417.0" y2="475.5" stroke="#333" stroke-width="0.8"/><line x1="783.0" y1="480.5" x2="783.0" y2="475.5" stroke="#333" stroke-width="0.8"/><line x1="417.0" y1="475.5" x2="783.0" y2="475.5" stroke="#333" stroke-width="0.8" marker-start="url(#dL)" marker-end="url(#dR)"/><text x="600.0" y="472.5" text-anchor="middle" font-size="8.5" font-family="Arial" fill="#333">2.44 m  (container internal width)</text><line x1="432.0" y1="498.5" x2="432.0" y2="493.5" stroke="#5c35cc" stroke-width="0.8"/><line x1="589.5" y1="498.5" x2="589.5" y2="493.5" stroke="#5c35cc" stroke-width="0.8"/><line x1="432.0" y1="493.5" x2="589.5" y2="493.5" stroke="#5c35cc" stroke-width="0.8" marker-start="url(#dL)" marker-end="url(#dR)"/><text x="510.8" y="490.5" text-anchor="middle" font-size="8" font-family="Arial" fill="#5c35cc">1.05 m  (UF skid footprint)</text><line x1="357.0" y1="62.0" x2="352.0" y2="62.0" stroke="#333" stroke-width="0.8"/><line x1="357.0" y1="450.5" x2="352.0" y2="450.5" stroke="#333" stroke-width="0.8"/><line x1="352.0" y1="62.0" x2="352.0" y2="450.5" stroke="#333" stroke-width="0.8" marker-start="url(#dL)" marker-end="url(#dR)"/><text x="348.0" y="256.2" text-anchor="middle" font-size="8.5" font-family="Arial" fill="#333" transform="rotate(-90 348.0 256.2)">2.59 m  (container height)</text><line x1="379.0" y1="72.5" x2="374.0" y2="72.5" stroke="#2e7d32" stroke-width="0.8"/><line x1="379.0" y1="170.0" x2="374.0" y2="170.0" stroke="#2e7d32" stroke-width="0.8"/><line x1="374.0" y1="72.5" x2="374.0" y2="170.0" stroke="#2e7d32" stroke-width="0.8" marker-start="url(#dL)" marker-end="url(#dR)"/><text x="370.0" y="121.2" text-anchor="middle" font-size="7.5" font-family="Arial" fill="#2e7d32" transform="rotate(-90 370.0 121.2)">0.65 m  (battery zone)</text><line x1="835.0" y1="194.0" x2="830.0" y2="194.0" stroke="#5c35cc" stroke-width="0.8"/><line x1="835.0" y1="434.0" x2="830.0" y2="434.0" stroke="#5c35cc" stroke-width="0.8"/><line x1="830.0" y1="194.0" x2="830.0" y2="434.0" stroke="#5c35cc" stroke-width="0.8" marker-start="url(#dL)" marker-end="url(#dR)"/><text x="826.0" y="314.0" text-anchor="middle" font-size="7.5" font-family="Arial" fill="#5c35cc" transform="rotate(-90 826.0 314.0)">1.60 m  (UF skid)</text><line x1="861.0" y1="333.3" x2="856.0" y2="333.3" stroke="#1565c0" stroke-width="0.8"/><line x1="861.0" y1="363.6" x2="856.0" y2="363.6" stroke="#1565c0" stroke-width="0.8"/><line x1="856.0" y1="333.3" x2="856.0" y2="363.6" stroke="#1565c0" stroke-width="0.8" marker-start="url(#dL)" marker-end="url(#dR)"/><text x="852.0" y="348.5" text-anchor="middle" font-size="7" font-family="Arial" fill="#1565c0" transform="rotate(-90 852.0 348.5)">203 mm OD</text><rect x="14" y="666.0" width="1172" height="62" fill="#f5f5f5" stroke="#ccc" stroke-width="0.8" rx="2"/><text x="600.0" y="679.0" text-anchor="middle" font-family="Arial" font-size="9" fill="#333" font-weight="bold">NOTES</text><text x="22.0" y="694.0" text-anchor="start" font-family="Arial" font-size="8" fill="#333">1. SW inlet flange: DN80 PN10 ANSI 150 flanged, with isolation valve (GV-01) and duplex basket strainer (STR-01) on inlet face.</text><text x="22.0" y="708.0" text-anchor="start" font-family="Arial" font-size="8" fill="#333">2. Permeate outlet and brine discharge exit on the outlet (east) face — see Plan View DWG ARCH-R2-CAD-001.</text><text x="22.0" y="722.0" text-anchor="start" font-family="Arial" font-size="8" fill="#333">3. DC cable conduit (lower right, DN40) carries PV array cabling to inverter INV-01. All electrical in IP65 conduit.</text><rect x="8" y="736" width="1184" height="36" fill="#2c3e50"/><rect x="8" y="736" width="290" height="36" fill="#1a2b3c"/><text x="154" y="750" text-anchor="middle" font-family="Arial" font-size="9" font-weight="bold" fill="#f0f0f0">ARCHMEDIS TECHNICAL TRIAL — ROUND 2</text><text x="154" y="764" text-anchor="middle" font-family="Arial" font-size="8" fill="#bdc3c7">Candidate Submission | June 2026</text><text x="600" y="750" text-anchor="middle" font-family="Arial" font-size="12" font-weight="bold" fill="white">SOLAR SPRO SYSTEM — END ELEVATION (INLET FACE)</text><text x="600" y="765" text-anchor="middle" font-family="Arial" font-size="9" fill="#bdc3c7">Scale 1:20  |  40 ft ISO Container  |  All dims in metres</text><text x="1186" y="747" text-anchor="end" font-family="Arial" font-size="7.5" fill="#bdc3c7">DWG: ARCH-R2-CAD-003 | Rev A</text><text x="1186" y="758" text-anchor="end" font-family="Arial" font-size="7.5" fill="#bdc3c7">Scale: 1:20</text><text x="1186" y="769" text-anchor="end" font-family="Arial" font-size="7.5" fill="#bdc3c7">20,000 L/day SWRO</text></svg>