<?xml version="1.0" encoding="UTF-8"?><svg xmlns="http://www.w3.org/2000/svg" viewBox="0 0 1200 780" width="1200" height="780"><rect width="1200" height="780" fill="#f0f2f5"/><rect x="8" y="8" width="1184" height="724" fill="white" stroke="#333" stroke-width="1.5"/><defs>
  <marker id="aC" markerWidth="8" markerHeight="8" refX="7" refY="4" orient="auto">
    <path d="M0,1 L7,4 L0,7 z" fill="#1565c0"/></marker>
  <marker id="aG" markerWidth="8" markerHeight="8" refX="7" refY="4" orient="auto">
    <path d="M0,1 L7,4 L0,7 z" fill="#2e7d32"/></marker>
  <marker id="aO" markerWidth="8" markerHeight="8" refX="7" refY="4" orient="auto">
    <path d="M0,1 L7,4 L0,7 z" fill="#bf5600"/></marker>
  <marker id="aY" markerWidth="8" markerHeight="8" refX="7" refY="4" orient="auto">
    <path d="M0,1 L7,4 L0,7 z" fill="#e67e22"/></marker>
  <marker id="dL" markerWidth="8" markerHeight="8" refX="0" refY="4" orient="auto">
    <path d="M7,0.5 L0,4 L7,7.5" fill="none" stroke="#555" stroke-width="1.2"/></marker>
  <marker id="dR" markerWidth="8" markerHeight="8" refX="8" refY="4" orient="auto">
    <path d="M0,0.5 L8,4 L0,7.5" fill="none" stroke="#555" stroke-width="1.2"/></marker>
</defs><text x="600.0" y="26.0" text-anchor="middle" font-family="Arial" font-size="13" fill="#1a3a6b" font-weight="bold">ISOMETRIC VIEW — SOLAR-POWERED SWRO DESALINATION SYSTEM — 20,000 L/DAY</text><text x="600.0" y="42.0" text-anchor="middle" font-family="Arial" font-size="9" fill="#555">Scale NTS  |  40 ft ISO Container  |  Viewed from south-east, above  |  Dimensions in metres</text><polygon points="155.0,430.0 661.7,137.4 560.3,78.9 53.6,371.4" fill="#ccc" opacity="0.25"/><polygon points="155.0,430.0 661.7,137.4 560.3,78.9 53.6,371.4" fill="#dfe8f5" stroke="#1a3a6b" stroke-width="1.0" opacity="0.35"/><polygon points="155.0,430.0 661.7,137.4 661.7,13.1 155.0,305.7" fill="#e8f0fb" stroke="#1a3a6b" stroke-width="2.0"/><polygon points="661.7,137.4 560.3,78.9 560.3,-45.4 661.7,13.1" fill="#d0ddf0" stroke="#1a3a6b" stroke-width="2.0"/><polygon points="155.0,305.7 661.7,13.1 560.3,-45.4 53.6,247.1" fill="#f4f7ff" stroke="#1a3a6b" stroke-width="1.5" stroke-dasharray="6,3" opacity="0.9"/><polygon points="155.0,430.0 53.6,371.4 53.6,247.1 155.0,305.7" fill="#d8e5f5" stroke="#1a3a6b" stroke-width="2.0"/><polygon points="53.6,371.4 560.3,78.9 560.3,-45.4 53.6,247.1" fill="#c8d8f0" stroke="#1a3a6b" stroke-width="1.5" opacity="0.7"/><polygon points="157.9,295.4 189.5,277.1 152.1,255.5 120.5,273.8" fill="#1e3a6b" stroke="#2980b9" stroke-width="0.7"/><polygon points="193.7,274.7 225.3,256.5 187.8,234.9 156.2,253.1" fill="#1e3a6b" stroke="#2980b9" stroke-width="0.7"/><polygon points="229.4,254.1 261.0,235.8 223.6,214.2 192.0,232.5" fill="#1e3a6b" stroke="#2980b9" stroke-width="0.7"/><polygon points="265.2,233.4 296.8,215.2 259.3,193.6 227.7,211.8" fill="#1e3a6b" stroke="#2980b9" stroke-width="0.7"/><polygon points="300.9,212.8 332.5,194.6 295.1,173.0 263.5,191.2" fill="#1e3a6b" stroke="#2980b9" stroke-width="0.7"/><polygon points="336.7,192.2 368.3,173.9 330.8,152.3 299.2,170.6" fill="#1e3a6b" stroke="#2980b9" stroke-width="0.7"/><polygon points="372.4,171.5 404.0,153.3 366.6,131.7 335.0,149.9" fill="#1e3a6b" stroke="#2980b9" stroke-width="0.7"/><polygon points="408.2,150.9 439.7,132.6 402.3,111.0 370.7,129.3" fill="#1e3a6b" stroke="#2980b9" stroke-width="0.7"/><polygon points="443.9,130.2 475.5,112.0 438.1,90.4 406.5,108.6" fill="#1e3a6b" stroke="#2980b9" stroke-width="0.7"/><polygon points="479.7,109.6 511.2,91.4 473.8,69.8 442.2,88.0" fill="#1e3a6b" stroke="#2980b9" stroke-width="0.7"/><polygon points="515.4,89.0 547.0,70.7 509.6,49.1 478.0,67.4" fill="#1e3a6b" stroke="#2980b9" stroke-width="0.7"/><polygon points="551.2,68.3 582.7,50.1 545.3,28.5 513.7,46.7" fill="#1e3a6b" stroke="#2980b9" stroke-width="0.7"/><polygon points="586.9,47.7 618.5,29.4 581.1,7.8 549.5,26.1" fill="#1e3a6b" stroke="#2980b9" stroke-width="0.7"/><polygon points="622.7,27.0 654.2,8.8 616.8,-12.8 585.2,5.4" fill="#1e3a6b" stroke="#2980b9" stroke-width="0.7"/><polygon points="114.7,270.4 146.3,252.2 108.9,230.6 77.3,248.8" fill="#1e3a6b" stroke="#2980b9" stroke-width="0.7"/><polygon points="150.4,249.8 182.0,231.5 144.6,209.9 113.0,228.2" fill="#1e3a6b" stroke="#2980b9" stroke-width="0.7"/><polygon points="186.2,229.1 217.8,210.9 180.4,189.3 148.8,207.5" fill="#1e3a6b" stroke="#2980b9" stroke-width="0.7"/><polygon points="221.9,208.5 253.5,190.2 216.1,168.6 184.5,186.9" fill="#1e3a6b" stroke="#2980b9" stroke-width="0.7"/><polygon points="257.7,187.8 289.3,169.6 251.9,148.0 220.3,166.2" fill="#1e3a6b" stroke="#2980b9" stroke-width="0.7"/><polygon points="293.4,167.2 325.0,149.0 287.6,127.4 256.0,145.6" fill="#1e3a6b" stroke="#2980b9" stroke-width="0.7"/><polygon points="329.2,146.6 360.8,128.3 323.4,106.7 291.8,125.0" fill="#1e3a6b" stroke="#2980b9" stroke-width="0.7"/><polygon points="364.9,125.9 396.5,107.7 359.1,86.1 327.5,104.3" fill="#1e3a6b" stroke="#2980b9" stroke-width="0.7"/><polygon points="400.7,105.3 432.3,87.0 394.9,65.4 363.3,83.7" fill="#1e3a6b" stroke="#2980b9" stroke-width="0.7"/><polygon points="436.4,84.6 468.0,66.4 430.6,44.8 399.0,63.0" fill="#1e3a6b" stroke="#2980b9" stroke-width="0.7"/><polygon points="472.2,64.0 503.8,45.8 466.4,24.2 434.8,42.4" fill="#1e3a6b" stroke="#2980b9" stroke-width="0.7"/><polygon points="507.9,43.4 539.5,25.1 502.1,3.5 470.5,21.8" fill="#1e3a6b" stroke="#2980b9" stroke-width="0.7"/><polygon points="543.7,22.7 575.3,4.5 537.9,-17.1 506.3,1.1" fill="#1e3a6b" stroke="#2980b9" stroke-width="0.7"/><polygon points="579.4,2.1 611.0,-16.2 573.6,-37.8 542.0,-19.5" fill="#1e3a6b" stroke="#2980b9" stroke-width="0.7"/><polygon points="71.4,245.4 103.0,227.2 65.6,205.6 34.0,223.8" fill="#1e3a6b" stroke="#2980b9" stroke-width="0.7"/><polygon points="107.2,224.8 138.8,206.6 101.4,185.0 69.8,203.2" fill="#1e3a6b" stroke="#2980b9" stroke-width="0.7"/><polygon points="142.9,204.2 174.5,185.9 137.1,164.3 105.5,182.6" fill="#1e3a6b" stroke="#2980b9" stroke-width="0.7"/><polygon points="178.7,183.5 210.3,165.3 172.9,143.7 141.3,161.9" fill="#1e3a6b" stroke="#2980b9" stroke-width="0.7"/><polygon points="214.4,162.9 246.0,144.6 208.6,123.0 177.0,141.3" fill="#1e3a6b" stroke="#2980b9" stroke-width="0.7"/><polygon points="250.2,142.2 281.8,124.0 244.4,102.4 212.8,120.6" fill="#1e3a6b" stroke="#2980b9" stroke-width="0.7"/><polygon points="285.9,121.6 317.5,103.4 280.1,81.8 248.5,100.0" fill="#1e3a6b" stroke="#2980b9" stroke-width="0.7"/><polygon points="321.7,101.0 353.3,82.7 315.9,61.1 284.3,79.4" fill="#1e3a6b" stroke="#2980b9" stroke-width="0.7"/><polygon points="357.4,80.3 389.0,62.1 351.6,40.5 320.0,58.7" fill="#1e3a6b" stroke="#2980b9" stroke-width="0.7"/><text x="383.0" y="134.2" text-anchor="middle" font-family="Arial" font-size="9" font-weight="bold" fill="#0d47a1">PV ARRAY — 37 × 400 W  |  14.8 kWp  |  72.9 m²  |  15° tilt south</text><polygon points="99.7,387.5 258.9,295.6 222.8,274.7 63.5,366.6" fill="#e8f5e9" stroke="#2e7d32" stroke-width="1.2" stroke-dasharray="5,2" opacity="0.85"/><polygon points="99.7,387.5 258.9,295.6 258.9,263.0 99.7,354.9" fill="#c8e6c9" stroke="#2e7d32" stroke-width="1.2" stroke-dasharray="5,2" opacity="0.85"/><polygon points="258.9,295.6 222.8,274.7 222.8,242.1 258.9,263.0" fill="#a5d6a7" stroke="#2e7d32" stroke-width="1.2" stroke-dasharray="5,2" opacity="0.85"/><text x="160.4" y="310.7" text-anchor="middle" font-family="Arial" font-size="8.5" fill="#1b5e20" font-weight="bold">LFP BATTERY — BAT-01  |  87.5 kWh  |  48 V</text><polygon points="155.0,425.2 218.2,388.7 218.2,311.0 155.0,347.4" fill="#ede7f6" stroke="#5c35cc" stroke-width="1.6" stroke-dasharray="6,2"/><polygon points="155.0,425.2 218.2,388.7 162.1,356.3 98.9,392.8" fill="#ddd5f8" stroke="#5c35cc" stroke-width="1.2" stroke-dasharray="5,2"/><polygon points="218.2,388.7 162.1,356.3 162.1,278.6 218.2,311.0" fill="#ccc0f0" stroke="#5c35cc" stroke-width="1.2" stroke-dasharray="5,2"/><text x="158.7" y="340.5" text-anchor="middle" font-family="Arial" font-size="8.5" fill="#4527a0" font-weight="bold">UF PRE-TX</text><text x="158.7" y="353.4" text-anchor="middle" font-family="Arial" font-size="7.5" fill="#512da8">F-01  |  0.02 µm PVDF</text><polygon points="222.3,348.9 240.6,338.3 219.8,326.3 201.6,336.9" fill="#ffebee" stroke="#c62828" stroke-width="2.2"/><polygon points="222.3,348.9 240.6,338.3 240.6,310.5 222.3,321.0" fill="#ffcdd2" stroke="#c62828" stroke-width="2.2"/><text x="239.8" y="313.8" text-anchor="middle" font-family="Arial" font-size="8.5" fill="#c62828" font-weight="bold">P-02  HP PUMP</text><text x="239.8" y="323.0" text-anchor="middle" font-family="Arial" font-size="7.5" fill="#c62828">60 bar  |  5.5 kW  |  Grundfos MTRE</text><polygon points="258.9,330.6 295.5,309.5 295.5,272.1 258.9,293.2" fill="#e3f2fd" stroke="#0277bd" stroke-width="1.6" stroke-dasharray="5,2"/><polygon points="258.9,330.6 295.5,309.5 258.1,287.9 221.5,309.0" fill="#bbdefb" stroke="#0277bd" stroke-width="1.2" stroke-dasharray="5,2"/><text x="258.5" y="284.3" text-anchor="middle" font-family="Arial" font-size="8.5" fill="#01579b" font-weight="bold">PX E-01</text><text x="258.5" y="293.9" text-anchor="middle" font-family="Arial" font-size="7.5" fill="#0277bd">η = 96%  |  ERI PX-70</text><polygon points="304.4,273.2 574.6,117.2 574.6,106.1 304.4,262.1" fill="#bbdefb" stroke="#1565c0" stroke-width="2.2"/><polygon points="304.4,262.1 574.6,106.1 565.1,100.6 294.9,256.6" fill="#ddeeff" stroke="#1565c0" stroke-width="2.2"/><line x1="349.5" y1="236.1" x2="339.9" y2="230.6" stroke="#1565c0" stroke-width="0.9" opacity="0.6"/><line x1="394.5" y1="210.1" x2="384.9" y2="204.6" stroke="#1565c0" stroke-width="0.9" opacity="0.6"/><line x1="439.5" y1="184.1" x2="430.0" y2="178.6" stroke="#1565c0" stroke-width="0.9" opacity="0.6"/><line x1="484.6" y1="158.1" x2="475.0" y2="152.6" stroke="#1565c0" stroke-width="0.9" opacity="0.6"/><line x1="529.6" y1="132.1" x2="520.0" y2="126.6" stroke="#1565c0" stroke-width="0.9" opacity="0.6"/><text x="445.4" y="180.8" text-anchor="middle" font-family="Arial" font-size="9.5" fill="#0d47a1" font-weight="bold">V-01 — RO PRESSURE VESSEL</text><text x="445.4" y="189.4" text-anchor="middle" font-family="Arial" font-size="8" fill="#1565c0">6 × Filmtec SW30XHR-400i  |  223 m²  |  J = 20 LMH  |  NDP = 17.7 bar</text><polygon points="322.9,292.7 332.9,287.0 332.9,259.8 322.9,265.6" fill="#607d8b" stroke="#455a64" stroke-width="1.0"/><polygon points="437.3,226.7 447.2,221.0 447.2,193.8 437.3,199.6" fill="#607d8b" stroke="#455a64" stroke-width="1.0"/><polygon points="551.6,160.7 561.5,155.0 561.5,127.8 551.6,133.6" fill="#607d8b" stroke="#455a64" stroke-width="1.0"/><polygon points="611.4,159.8 649.7,137.7 649.7,58.5 611.4,80.6" fill="#e8f5e9" stroke="#2e7d32" stroke-width="1.6"/><polygon points="611.4,159.8 649.7,137.7 591.1,103.8 552.8,125.9" fill="#c8e6c9" stroke="#2e7d32" stroke-width="1.2"/><text x="601.5" y="83.9" text-anchor="middle" font-family="Arial" font-size="8.5" fill="#1b5e20" font-weight="bold">T-01  PERMEATE</text><text x="601.5" y="94.5" text-anchor="middle" font-family="Arial" font-size="7.5" fill="#2e7d32">20,000 L/d  |  &lt;500 ppm</text><line x1="64.3" y1="375.8" x2="104.3" y2="375.8" stroke="#1565c0" stroke-width="3.5" marker-end="url(#aC)"/><text x="60.3" y="367.8" text-anchor="end" font-family="Arial" font-size="8" fill="#1565c0">SW IN  44.4 m³/d</text><line x1="109.3" y1="372.9" x2="171.6" y2="336.9" stroke="#1565c0" stroke-width="2.5"/><line x1="171.6" y1="336.9" x2="217.4" y2="310.5" stroke="#1565c0" stroke-width="2.5"/><line x1="226.5" y1="297.5" x2="291.3" y2="260.1" stroke="#1565c0" stroke-width="5.5"/><line x1="439.5" y1="184.1" x2="439.5" y2="158.1" stroke="#2e7d32" stroke-width="2.5" marker-end="url(#aG)"/><line x1="439.5" y1="158.1" x2="582.3" y2="80.6" stroke="#2e7d32" stroke-width="2.5" marker-end="url(#aG)"/><line x1="569.9" y1="108.9" x2="605.9" y2="126.9" stroke="#bf5600" stroke-width="3" marker-end="url(#aO)"/><text x="609.9" y="130.9" font-family="Arial" font-size="8" fill="#bf5600">BRINE  24,400 L/d  63.6 g/L  → PX</text><line x1="275.6" y1="221.7" x2="217.4" y2="318.6" stroke="#e67e22" stroke-width="1.8" stroke-dasharray="7,3" marker-end="url(#aY)"/><text x="254.5" y="270.2" font-family="Arial" font-size="8" fill="#e67e22">DC  70 kWh/day</text><line x1="53.6" y1="377.4" x2="560.3" y2="84.9" stroke="#333" stroke-width="0.9" marker-start="url(#dL)" marker-end="url(#dR)"/><text x="306.9" y="243.2" text-anchor="middle" font-family="Arial" font-size="9" fill="#333">12.19 m</text><line x1="149.0" y1="430.0" x2="149.0" y2="305.7" stroke="#333" stroke-width="0.9" marker-start="url(#dL)" marker-end="url(#dR)"/><text x="135.0" y="367.8" text-anchor="end" font-family="Arial" font-size="9" fill="#333">2.59 m</text><line x1="667.7" y1="137.4" x2="566.3" y2="78.9" stroke="#333" stroke-width="0.9" marker-start="url(#dL)" marker-end="url(#dR)"/><text x="580.3" y="108.2" font-family="Arial" font-size="9" fill="#333">2.44 m</text><line x1="155.0" y1="449.2" x2="217.4" y2="413.2" stroke="#c62828" stroke-width="1.8" marker-end="url(#aO)"/><line x1="155.0" y1="449.2" x2="92.6" y2="413.2" stroke="#2e7d32" stroke-width="1.8" marker-end="url(#aG)"/><line x1="155.0" y1="449.2" x2="155.0" y2="401.2" stroke="#1565c0" stroke-width="1.8" marker-end="url(#aC)"/><text x="222.4" y="417.2" font-family="Arial" font-size="8" fill="#c62828">L (12.19 m)</text><text x="80.6" y="417.2" text-anchor="end" font-family="Arial" font-size="8" fill="#2e7d32">W (2.44 m)</text><text x="151.0" y="401.2" text-anchor="end" font-family="Arial" font-size="8" fill="#1565c0">H (2.59 m)</text><rect x="14" y="664.0" width="460" height="64" fill="#f5f5f5" stroke="#ccc" stroke-width="0.8" rx="2"/><text x="234.0" y="677.0" text-anchor="middle" font-family="Arial" font-size="9" fill="#333" font-weight="bold">FLOW LEGEND</text><line x1="24" y1="694.0" x2="66" y2="694.0" stroke="#1565c0" stroke-width="4.5"/><text x="72.0" y="698.0" text-anchor="start" font-family="Arial" font-size="8" fill="#333">Feed / HP seawater</text><line x1="24" y1="714.0" x2="66" y2="714.0" stroke="#2e7d32" stroke-width="3.5"/><text x="72.0" y="718.0" text-anchor="start" font-family="Arial" font-size="8" fill="#333">Permeate (product)</text><line x1="230" y1="694.0" x2="272" y2="694.0" stroke="#bf5600" stroke-width="3.5"/><text x="278.0" y="698.0" text-anchor="start" font-family="Arial" font-size="8" fill="#333">Brine reject</text><line x1="230" y1="714.0" x2="272" y2="714.0" stroke="#e67e22" stroke-width="1.8" stroke-dasharray="6,3"/><text x="278.0" y="718.0" text-anchor="start" font-family="Arial" font-size="8" fill="#333">Electrical DC (dashed)</text><rect x="488" y="664.0" width="696" height="64" fill="#f5f5f5" stroke="#ccc" stroke-width="0.8" rx="2"/><text x="836.0" y="677.0" text-anchor="middle" font-family="Arial" font-size="9" fill="#333" font-weight="bold">KEY DESIGN NUMBERS</text><text x="496.0" y="692.0" text-anchor="start" font-family="Arial" font-size="8" fill="#333">Osmotic pressure: π = 28.4 bar  (van't Hoff, i = 1.90, 35 g/L NaCl, 25°C)  |  ΔP operating = 60 bar</text><text x="496.0" y="706.0" text-anchor="start" font-family="Arial" font-size="8" fill="#333">CP = 1.49 (Graetz–Lévêque)  |  π_membrane = 42.3 bar  |  NDP = 17.7 bar  |  Flux J = 20 LMH</text><text x="496.0" y="720.0" text-anchor="start" font-family="Arial" font-size="8" fill="#333">SEC = 3.5 kWh/m³ (PX η = 96%)  |  E_day = 70 kWh  |  LCoW ≈ $2.16/m³ (±40%)  |  LFP 87.5 kWh</text><rect x="8" y="736" width="1184" height="36" fill="#2c3e50"/><rect x="8" y="736" width="290" height="36" fill="#1a2b3c"/><text x="154" y="750" text-anchor="middle" font-family="Arial" font-size="9" font-weight="bold" fill="#f0f0f0">ARCHMEDIS TECHNICAL TRIAL — ROUND 2</text><text x="154" y="764" text-anchor="middle" font-family="Arial" font-size="8" fill="#bdc3c7">Candidate Submission | June 2026</text><text x="600" y="750" text-anchor="middle" font-family="Arial" font-size="12" font-weight="bold" fill="white">SOLAR SPRO SYSTEM — ISOMETRIC VIEW</text><text x="600" y="765" text-anchor="middle" font-family="Arial" font-size="9" fill="#bdc3c7">Scale NTS  |  40 ft ISO Container  |  Viewed from SE above</text><text x="1186" y="747" text-anchor="end" font-family="Arial" font-size="7.5" fill="#bdc3c7">DWG: ARCH-R2-CAD-004 | Rev A</text><text x="1186" y="758" text-anchor="end" font-family="Arial" font-size="7.5" fill="#bdc3c7">Scale: NTS</text><text x="1186" y="769" text-anchor="end" font-family="Arial" font-size="7.5" fill="#bdc3c7">20,000 L/day SWRO</text></svg>