<?xml version="1.0" encoding="UTF-8"?><svg xmlns="http://www.w3.org/2000/svg" viewBox="0 0 1200 780" width="1200" height="780"><rect width="1200" height="780" fill="#f0f2f5"/><rect x="8" y="8" width="1184" height="724" fill="white" stroke="#333" stroke-width="1.5"/><defs>
  <marker id="aC" markerWidth="8" markerHeight="8" refX="7" refY="4" orient="auto">
    <path d="M0,1 L7,4 L0,7 z" fill="#1565c0"/></marker>
  <marker id="aG" markerWidth="8" markerHeight="8" refX="7" refY="4" orient="auto">
    <path d="M0,1 L7,4 L0,7 z" fill="#2e7d32"/></marker>
  <marker id="aO" markerWidth="8" markerHeight="8" refX="7" refY="4" orient="auto">
    <path d="M0,1 L7,4 L0,7 z" fill="#bf5600"/></marker>
  <marker id="aY" markerWidth="8" markerHeight="8" refX="7" refY="4" orient="auto">
    <path d="M0,1 L7,4 L0,7 z" fill="#e67e22"/></marker>
  <marker id="dL" markerWidth="8" markerHeight="8" refX="0" refY="4" orient="auto">
    <path d="M7,0.5 L0,4 L7,7.5" fill="none" stroke="#555" stroke-width="1.2"/></marker>
  <marker id="dR" markerWidth="8" markerHeight="8" refX="8" refY="4" orient="auto">
    <path d="M0,0.5 L8,4 L0,7.5" fill="none" stroke="#555" stroke-width="1.2"/></marker>
</defs><text x="600.0" y="26.0" text-anchor="middle" font-family="Arial" font-size="13" fill="#1a3a6b" font-weight="bold">PROCESS &amp; INSTRUMENTATION DIAGRAM (P&amp;ID) — SOLAR SPRO  20,000 L/DAY</text><text x="600.0" y="42.0" text-anchor="middle" font-family="Arial" font-size="8.5" fill="#555">Scale NTS  |  ISA 5.1 instrument symbology  |  Sheet 1 of 1  |  All process data at design conditions (25°C, 35 g/L NaCl)</text><rect x="16" y="55" width="105" height="60" fill="#fff8e1" stroke="#f57f17" stroke-width="1.6" rx="3"/><text x="68.0" y="72.0" text-anchor="middle" font-family="Arial" font-size="9" fill="#e65100" font-weight="bold">PV ARRAY</text><text x="68.0" y="85.0" text-anchor="middle" font-family="Arial" font-size="7.5" fill="#e65100">14.8 kWp | 37 × 400 W</text><text x="68.0" y="97.0" text-anchor="middle" font-family="Arial" font-size="7.5" fill="#e67e22">72.9 m² | 15° tilt</text><text x="68.0" y="108.0" text-anchor="middle" font-family="Arial" font-size="7" fill="#e67e22">η = 21% | MPPT ctrl</text><rect x="134" y="55" width="105" height="60" fill="#e8f5e9" stroke="#2e7d32" stroke-width="1.6" rx="3"/><text x="186.0" y="72.0" text-anchor="middle" font-family="Arial" font-size="9" fill="#1b5e20" font-weight="bold">LFP BATTERY</text><text x="186.0" y="85.0" text-anchor="middle" font-family="Arial" font-size="7.5" fill="#1b5e20">BAT-01: 87.5 kWh</text><text x="186.0" y="97.0" text-anchor="middle" font-family="Arial" font-size="7.5" fill="#2e7d32">48 V | 80% DoD</text><text x="186.0" y="108.0" text-anchor="middle" font-family="Arial" font-size="7" fill="#2e7d32">CATL 280 Ah | BMS</text><rect x="252" y="55" width="100" height="60" fill="#f3e5f5" stroke="#6a1b9a" stroke-width="1.6" rx="3"/><text x="302.0" y="72.0" text-anchor="middle" font-family="Arial" font-size="9" fill="#4a148c" font-weight="bold">INVERTER</text><text x="302.0" y="85.0" text-anchor="middle" font-family="Arial" font-size="8" fill="#4a148c">INV-01</text><text x="302.0" y="97.0" text-anchor="middle" font-family="Arial" font-size="7.5" fill="#6a1b9a">Victron 48/8000</text><text x="302.0" y="108.0" text-anchor="middle" font-family="Arial" font-size="7" fill="#6a1b9a">8 kW AC | MPPT 150V</text><line x1="121" y1="85" x2="134" y2="85" stroke="#e67e22" stroke-width="1.6" stroke-dasharray="4,2" marker-end="url(#aY)"/><line x1="239" y1="85" x2="252" y2="85" stroke="#e67e22" stroke-width="1.6" stroke-dasharray="4,2" marker-end="url(#aY)"/><line x1="352" y1="85" x2="395" y2="85" stroke="#e67e22" stroke-width="1.6" stroke-dasharray="4,2"/><line x1="395" y1="85" x2="395" y2="248" stroke="#e67e22" stroke-width="1.6" stroke-dasharray="4,2" marker-end="url(#aY)"/><text x="379" y="172" text-anchor="middle" font-family="Arial" font-size="8" fill="#e67e22" transform="rotate(-90 379 172)">DC power  70 kWh/day</text><rect x="16" y="210" width="78" height="72" fill="#e3f2fd" stroke="#1565c0" stroke-width="1.6" rx="3"/><text x="55.0" y="228.0" text-anchor="middle" font-family="Arial" font-size="9" fill="#0d47a1" font-weight="bold">SEAWATER</text><text x="55.0" y="241.0" text-anchor="middle" font-family="Arial" font-size="9" fill="#0d47a1" font-weight="bold">SOURCE</text><text x="55.0" y="254.0" text-anchor="middle" font-family="Arial" font-size="8" fill="#1565c0">44.4 m³/d</text><text x="55.0" y="266.0" text-anchor="middle" font-family="Arial" font-size="8" fill="#1565c0">35 g/L NaCl</text><text x="55.0" y="277.0" text-anchor="middle" font-family="Arial" font-size="7.5" fill="#1565c0">25°C | pH 8.1</text><rect x="115" y="172" width="64" height="50" fill="#fce4ec" stroke="#ad1457" stroke-width="1.1" stroke-dasharray="5,2" rx="3"/><text x="147.0" y="189.0" text-anchor="middle" font-family="Arial" font-size="8" fill="#880e4f" font-weight="bold">ANTISCALANT</text><text x="147.0" y="201.0" text-anchor="middle" font-family="Arial" font-size="8" fill="#880e4f">D-01</text><text x="147.0" y="212.0" text-anchor="middle" font-family="Arial" font-size="7" fill="#ad1457">&lt;5 ppm Genesys SW</text><line x1="147" y1="222" x2="147" y2="244" stroke="#ad1457" stroke-width="1.2" stroke-dasharray="3,2" marker-end="url(#aY)"/><circle cx="210" cy="246" r="24" fill="#fff8e1" stroke="#f57f17" stroke-width="2.2"/><path d="M192,246 Q210,224 228,246 Q210,268 192,246" fill="#ffe082" stroke="#f57f17" stroke-width="1.8"/><text x="210.0" y="241.0" text-anchor="middle" font-family="Arial" font-size="10" fill="#e65100" font-weight="bold">P</text><text x="210.0" y="254.0" text-anchor="middle" font-family="Arial" font-size="8.5" fill="#e65100">P-01</text><text x="210.0" y="282.0" text-anchor="middle" font-family="Arial" font-size="8" fill="#555">LP | 2.5 bar</text><text x="210.0" y="294.0" text-anchor="middle" font-family="Arial" font-size="7.5" fill="#555">1.85 m³/h</text><circle cx="210.0" cy="305.0" r="10" fill="white" stroke="#333" stroke-width="1.2"/><text x="210.0" y="308.8" text-anchor="middle" font-family="Arial" font-size="7" fill="#111">FI-01</text><line x1="210.0" y1="315.0" x2="210.0" y2="270.0" stroke="#555" stroke-width="0.9" stroke-dasharray="3,2"/><rect x="258" y="208" width="108" height="96" fill="#ede7f6" stroke="#5c35cc" stroke-width="1.8" rx="5"/><text x="312.0" y="228.0" text-anchor="middle" font-family="Arial" font-size="10" fill="#4527a0" font-weight="bold">UF PRE-TX</text><text x="312.0" y="242.0" text-anchor="middle" font-family="Arial" font-size="9.5" fill="#512da8">F-01</text><text x="312.0" y="256.0" text-anchor="middle" font-family="Arial" font-size="8" fill="#5c35cc">Dow FilmTec UF</text><text x="312.0" y="269.0" text-anchor="middle" font-family="Arial" font-size="8" fill="#5c35cc">SDI &lt;3 | 0.02 µm</text><text x="312.0" y="281.0" text-anchor="middle" font-family="Arial" font-size="7.5" fill="#5c35cc">PVDF hollow fibre</text><text x="312.0" y="293.0" text-anchor="middle" font-family="Arial" font-size="7" fill="#5c35cc">CIP: NaOH / citric</text><circle cx="272.0" cy="197.0" r="10" fill="white" stroke="#333" stroke-width="1.2"/><text x="272.0" y="200.8" text-anchor="middle" font-family="Arial" font-size="7" fill="#111">PT-01</text><line x1="272.0" y1="207.0" x2="272.0" y2="208.0" stroke="#555" stroke-width="0.9" stroke-dasharray="3,2"/><circle cx="330.0" cy="197.0" r="10" fill="white" stroke="#333" stroke-width="1.2"/><text x="330.0" y="200.8" text-anchor="middle" font-family="Arial" font-size="7" fill="#111">AT-01</text><line x1="330.0" y1="207.0" x2="330.0" y2="208.0" stroke="#555" stroke-width="0.9" stroke-dasharray="3,2"/><circle cx="420" cy="256" r="28" fill="#ffebee" stroke="#c62828" stroke-width="2.5"/><path d="M399,256 Q420,228 441,256 Q420,284 399,256" fill="#ffcdd2" stroke="#c62828" stroke-width="2.2"/><text x="420.0" y="250.0" text-anchor="middle" font-family="Arial" font-size="11" fill="#b71c1c" font-weight="bold">P</text><text x="420.0" y="264.0" text-anchor="middle" font-family="Arial" font-size="9" fill="#c62828">P-02</text><text x="420.0" y="298.0" text-anchor="middle" font-family="Arial" font-size="9.5" fill="#c62828" font-weight="bold">HP PUMP</text><text x="420.0" y="312.0" text-anchor="middle" font-family="Arial" font-size="8.5" fill="#c62828">60 bar | 5.5 kW</text><text x="420.0" y="325.0" text-anchor="middle" font-family="Arial" font-size="8" fill="#c62828">Grundfos MTRE 45-3</text><text x="420.0" y="337.0" text-anchor="middle" font-family="Arial" font-size="7.5" fill="#c62828">VFD speed control</text><rect x="452" y="232" width="58" height="26" fill="#fff3e0" stroke="#e65100" stroke-width="1" rx="2"/><text x="481.0" y="243.0" text-anchor="middle" font-family="Arial" font-size="8.5" fill="#e65100" font-weight="bold">PSV-01</text><text x="481.0" y="254.0" text-anchor="middle" font-family="Arial" font-size="7.5" fill="#e65100">set 70 bar</text><line x1="452" y1="245" x2="448" y2="245" stroke="#e65100" stroke-width="0.9" stroke-dasharray="3,2"/><circle cx="420.0" cy="207.0" r="10" fill="white" stroke="#333" stroke-width="1.2"/><text x="420.0" y="210.8" text-anchor="middle" font-family="Arial" font-size="7" fill="#111">PT-02</text><line x1="420.0" y1="217.0" x2="420.0" y2="228.0" stroke="#555" stroke-width="0.9" stroke-dasharray="3,2"/><rect x="512" y="308" width="98" height="68" fill="#e3f2fd" stroke="#0277bd" stroke-width="1.6" stroke-dasharray="5,2" rx="5"/><text x="561.0" y="329.0" text-anchor="middle" font-family="Arial" font-size="10" fill="#01579b" font-weight="bold">PX DEVICE</text><text x="561.0" y="344.0" text-anchor="middle" font-family="Arial" font-size="9.5" fill="#0277bd">E-01</text><text x="561.0" y="358.0" text-anchor="middle" font-family="Arial" font-size="8.5" fill="#0277bd">ERI PX-70</text><text x="561.0" y="370.0" text-anchor="middle" font-family="Arial" font-size="8" fill="#0277bd">η = 96% | isobaric</text><rect x="630" y="208" width="530" height="130" fill="#e3f2fd" stroke="#1565c0" stroke-width="2.5" rx="8"/><line x1="718.3" y1="208" x2="718.3" y2="338" stroke="#1565c0" stroke-width="0.9" opacity="0.6"/><line x1="806.7" y1="208" x2="806.7" y2="338" stroke="#1565c0" stroke-width="0.9" opacity="0.6"/><line x1="895.0" y1="208" x2="895.0" y2="338" stroke="#1565c0" stroke-width="0.9" opacity="0.6"/><line x1="983.3" y1="208" x2="983.3" y2="338" stroke="#1565c0" stroke-width="0.9" opacity="0.6"/><line x1="1071.7" y1="208" x2="1071.7" y2="338" stroke="#1565c0" stroke-width="0.9" opacity="0.6"/><text x="895.0" y="228.0" text-anchor="middle" font-family="Arial" font-size="11" fill="#0d47a1" font-weight="bold">RO PRESSURE VESSEL — V-01</text><text x="895.0" y="244.0" text-anchor="middle" font-family="Arial" font-size="8.5" fill="#1565c0">6 × Filmtec SW30XHR-400i  |  8" × 40"  (203 mm OD × 1016 mm per element)</text><text x="895.0" y="258.0" text-anchor="middle" font-family="Arial" font-size="8.5" fill="#1565c0">Active membrane area: 6 × 37.2 = 223 m²  |  FRP vessel Codeline 80S-6, PN 80 bar</text><text x="895.0" y="272.0" text-anchor="middle" font-family="Arial" font-size="8" fill="#1565c0">Feed: 44.4 m³/d @ 60 bar, 25°C  |  Recovery: 45%  |  Rejection: 99.75%  |  NaCl permeate &lt;500 ppm</text><text x="895.0" y="285.0" text-anchor="middle" font-family="Arial" font-size="8" fill="#1565c0">Permeate: 20,000 L/d  |  Brine: 24,400 L/d @ 63.6 g/L  |  Flux J = 20 L/(m²·h)</text><text x="895.0" y="298.0" text-anchor="middle" font-family="Arial" font-size="8" fill="#1565c0">CP factor: 1.49 (Graetz–Lévêque)  |  Effective osmotic pressure π_m = 42.3 bar  |  NDP = 17.7 bar</text><text x="895.0" y="311.0" text-anchor="middle" font-family="Arial" font-size="7.5" fill="#555">Chemical dosing: antiscalant &lt;5 ppm Genesys SW  |  pH adjust H₂SO₄ to pH 7.5</text><text x="895.0" y="323.0" text-anchor="middle" font-family="Arial" font-size="7.5" fill="#555">Thermodynamic min: 0.72 kWh/m³  |  Actual SEC (with PX): 3.5 kWh/m³  |  η_th = 20.6%</text><circle cx="650.0" cy="196.0" r="10" fill="white" stroke="#333" stroke-width="1.2"/><text x="650.0" y="199.8" text-anchor="middle" font-family="Arial" font-size="7" fill="#111">PI-01</text><line x1="650.0" y1="206.0" x2="650.0" y2="208.0" stroke="#555" stroke-width="0.9" stroke-dasharray="3,2"/><circle cx="698.0" cy="196.0" r="10" fill="white" stroke="#333" stroke-width="1.2"/><text x="698.0" y="199.8" text-anchor="middle" font-family="Arial" font-size="7" fill="#111">PT-03</text><line x1="698.0" y1="206.0" x2="698.0" y2="208.0" stroke="#555" stroke-width="0.9" stroke-dasharray="3,2"/><circle cx="778.0" cy="196.0" r="10" fill="white" stroke="#333" stroke-width="1.2"/><text x="778.0" y="199.8" text-anchor="middle" font-family="Arial" font-size="7" fill="#111">AT-02</text><line x1="778.0" y1="206.0" x2="778.0" y2="208.0" stroke="#555" stroke-width="0.9" stroke-dasharray="3,2"/><circle cx="870.0" cy="196.0" r="10" fill="white" stroke="#333" stroke-width="1.2"/><text x="870.0" y="199.8" text-anchor="middle" font-family="Arial" font-size="7" fill="#111">FI-02</text><line x1="870.0" y1="206.0" x2="870.0" y2="208.0" stroke="#555" stroke-width="0.9" stroke-dasharray="3,2"/><circle cx="980.0" cy="196.0" r="10" fill="white" stroke="#333" stroke-width="1.2"/><text x="980.0" y="199.8" text-anchor="middle" font-family="Arial" font-size="7" fill="#111">PI-02</text><line x1="980.0" y1="206.0" x2="980.0" y2="208.0" stroke="#555" stroke-width="0.9" stroke-dasharray="3,2"/><rect x="1172" y="208" width="22" height="100" fill="#e8f5e9" stroke="#2e7d32" stroke-width="1.6" rx="3"/><text x="1183.0" y="248.0" text-anchor="middle" font-family="Arial" font-size="7.5" fill="#1b5e20" font-weight="bold">PERMEATE T-01</text><text x="1183" y="248" text-anchor="middle" font-family="Arial" font-size="8" font-weight="bold" fill="#1b5e20" transform="rotate(-90 1183 258)">PERMEATE T-01</text><text x="1183" y="290" text-anchor="middle" font-family="Arial" font-size="7.5" fill="#2e7d32" transform="rotate(-90 1183 290)">20,000 L/d  &lt;500 ppm</text><circle cx="1183.0" cy="196.0" r="10" fill="white" stroke="#333" stroke-width="1.2"/><text x="1183.0" y="199.8" text-anchor="middle" font-family="Arial" font-size="7" fill="#111">LI-01</text><line x1="1183.0" y1="206.0" x2="1183.0" y2="208.0" stroke="#555" stroke-width="0.9" stroke-dasharray="3,2"/><rect x="1088" y="430" width="80" height="60" fill="#fff8e1" stroke="#e67e22" stroke-width="1.5" rx="3"/><text x="1128.0" y="451.0" text-anchor="middle" font-family="Arial" font-size="9.5" fill="#e65100" font-weight="bold">BRINE</text><text x="1128.0" y="465.0" text-anchor="middle" font-family="Arial" font-size="8.5" fill="#e65100">DISPOSAL</text><text x="1128.0" y="478.0" text-anchor="middle" font-family="Arial" font-size="8" fill="#e67e22">24,400 L/d</text><text x="1128.0" y="489.0" text-anchor="middle" font-family="Arial" font-size="7.5" fill="#e67e22">63.6 g/L</text><line x1="94" y1="246" x2="186" y2="246" stroke="#1565c0" stroke-width="2.5" marker-end="url(#aC)"/><text x="140.0" y="240.0" text-anchor="middle" font-family="Arial" font-size="8" fill="#1565c0">44.4 m³/d</text><line x1="234" y1="246" x2="258" y2="246" stroke="#1565c0" stroke-width="2.5" marker-end="url(#aC)"/><line x1="366" y1="256" x2="392" y2="256" stroke="#1565c0" stroke-width="2.5" marker-end="url(#aC)"/><text x="379.0" y="250.0" text-anchor="middle" font-family="Arial" font-size="7.5" fill="#555">SDI &lt;3</text><line x1="448" y1="256" x2="630" y2="256" stroke="#1565c0" stroke-width="5.5" marker-end="url(#aC)"/><line x1="455" y1="249" x2="630" y2="249" stroke="#1565c0" stroke-width="1" opacity="0.3"/><rect x="492" y="241" width="76" height="14" fill="#c62828" rx="2"/><text x="530.0" y="251.0" text-anchor="middle" font-family="Arial" font-size="8" fill="white" font-weight="bold">HP 60 bar →</text><line x1="1160" y1="252" x2="1172" y2="252" stroke="#2e7d32" stroke-width="2.5" marker-end="url(#aG)"/><text x="1155.0" y="247.0" text-anchor="end" font-family="Arial" font-size="7.5" fill="#1b5e20">20 kL/d</text><line x1="1160" y1="286" x2="1155" y2="286" stroke="#bf5600" stroke-width="2.2"/><line x1="1155" y1="286" x2="1155" y2="460" stroke="#bf5600" stroke-width="2.2"/><line x1="1155" y1="460" x2="1168" y2="460" stroke="#bf5600" stroke-width="2.2" marker-end="url(#aO)"/><text x="1160" y="390" text-anchor="start" font-family="Arial" font-size="8" fill="#bf5600" transform="rotate(-90 1160 390)">brine  24,400 L/d  63.6 g/L →</text><line x1="1148" y1="300" x2="1142" y2="300" stroke="#bf5600" stroke-width="1.8"/><line x1="1142" y1="300" x2="1142" y2="390" stroke="#bf5600" stroke-width="1.8"/><line x1="1142" y1="390" x2="610" y2="390" stroke="#bf5600" stroke-width="1.8" marker-end="url(#aO)"/><text x="880.0" y="385.0" text-anchor="middle" font-family="Arial" font-size="8" fill="#bf5600">← brine high-pressure side → PX energy recovery (η = 96%)</text><line x1="512" y1="352" x2="460" y2="352" stroke="#0277bd" stroke-width="2.2" stroke-dasharray="6,2" marker-end="url(#aC)"/><line x1="460" y1="352" x2="460" y2="284" stroke="#0277bd" stroke-width="2.2" stroke-dasharray="6,2" marker-end="url(#aC)"/><text x="486.0" y="370.0" text-anchor="middle" font-family="Arial" font-size="7.5" fill="#0277bd">pre-pressurised SW → HP suction (PX outlet)</text><rect x="14" y="661.0" width="560" height="67" fill="#f5f5f5" stroke="#ccc" stroke-width="0.8" rx="2"/><text x="290.0" y="674.0" text-anchor="middle" font-family="Arial" font-size="9" fill="#333" font-weight="bold">LINE &amp; INSTRUMENT LEGEND</text><line x1="24" y1="689.0" x2="68" y2="689.0" stroke="#1565c0" stroke-width="5"/><text x="74.0" y="694.0" text-anchor="start" font-family="Arial" font-size="8.5" fill="#333">Feed / HP process line</text><line x1="24" y1="707.0" x2="68" y2="707.0" stroke="#2e7d32" stroke-width="3.5"/><text x="74.0" y="712.0" text-anchor="start" font-family="Arial" font-size="8.5" fill="#333">Permeate line</text><line x1="24" y1="723.0" x2="68" y2="723.0" stroke="#bf5600" stroke-width="3.5"/><text x="74.0" y="728.0" text-anchor="start" font-family="Arial" font-size="8.5" fill="#333">Brine reject line</text><line x1="250" y1="689.0" x2="294" y2="689.0" stroke="#e67e22" stroke-width="2" stroke-dasharray="5,2"/><text x="300.0" y="694.0" text-anchor="start" font-family="Arial" font-size="8.5" fill="#333">Electrical DC (dashed)</text><line x1="250" y1="707.0" x2="294" y2="707.0" stroke="#0277bd" stroke-width="2" stroke-dasharray="6,2"/><text x="300.0" y="712.0" text-anchor="start" font-family="Arial" font-size="8.5" fill="#333">PX → HP pump suction (pressurised)</text><line x1="250" y1="723.0" x2="294" y2="723.0" stroke="#ad1457" stroke-width="1.5" stroke-dasharray="4,2"/><text x="300.0" y="728.0" text-anchor="start" font-family="Arial" font-size="8.5" fill="#333">Chemical dosing (dashed)</text><rect x="588" y="661.0" width="596" height="67" fill="#f5f5f5" stroke="#ccc" stroke-width="0.8" rx="2"/><text x="886.0" y="674.0" text-anchor="middle" font-family="Arial" font-size="9" fill="#333" font-weight="bold">INSTRUMENT TAG KEY</text><circle cx="608.0" cy="685.0" r="10" fill="white" stroke="#333" stroke-width="1.2"/><text x="608.0" y="688.8" text-anchor="middle" font-family="Arial" font-size="7" fill="#111">PT</text><text x="622.0" y="689.0" text-anchor="start" font-family="Arial" font-size="8" fill="#333">= Pressure Transmitter</text><circle cx="908.0" cy="685.0" r="10" fill="white" stroke="#333" stroke-width="1.2"/><text x="908.0" y="688.8" text-anchor="middle" font-family="Arial" font-size="7" fill="#111">PI</text><text x="922.0" y="689.0" text-anchor="start" font-family="Arial" font-size="8" fill="#333">= Pressure Indicator (local gauge)</text><circle cx="608.0" cy="705.0" r="10" fill="white" stroke="#333" stroke-width="1.2"/><text x="608.0" y="708.8" text-anchor="middle" font-family="Arial" font-size="7" fill="#111">FI</text><text x="622.0" y="709.0" text-anchor="start" font-family="Arial" font-size="8" fill="#333">= Flow Indicator</text><circle cx="908.0" cy="705.0" r="10" fill="white" stroke="#333" stroke-width="1.2"/><text x="908.0" y="708.8" text-anchor="middle" font-family="Arial" font-size="7" fill="#111">AT</text><text x="922.0" y="709.0" text-anchor="start" font-family="Arial" font-size="8" fill="#333">= Analyser Transmitter (conductivity/TDS)</text><circle cx="608.0" cy="725.0" r="10" fill="white" stroke="#333" stroke-width="1.2"/><text x="608.0" y="728.8" text-anchor="middle" font-family="Arial" font-size="7" fill="#111">LI</text><text x="622.0" y="729.0" text-anchor="start" font-family="Arial" font-size="8" fill="#333">= Level Indicator</text><rect x="8" y="736" width="1184" height="36" fill="#2c3e50"/><rect x="8" y="736" width="290" height="36" fill="#1a2b3c"/><text x="154" y="750" text-anchor="middle" font-family="Arial" font-size="9" font-weight="bold" fill="#f0f0f0">ARCHMEDIS TECHNICAL TRIAL — ROUND 2</text><text x="154" y="764" text-anchor="middle" font-family="Arial" font-size="8" fill="#bdc3c7">Candidate Submission | June 2026</text><text x="600" y="750" text-anchor="middle" font-family="Arial" font-size="12" font-weight="bold" fill="white">SOLAR SPRO SYSTEM — P&amp;ID (PROCESS &amp; INSTRUMENTATION DIAGRAM)</text><text x="600" y="765" text-anchor="middle" font-family="Arial" font-size="9" fill="#bdc3c7">Scale NTS  |  ISA 5.1  |  Sheet 1 of 1</text><text x="1186" y="747" text-anchor="end" font-family="Arial" font-size="7.5" fill="#bdc3c7">DWG: ARCH-R2-CAD-005 | Rev A</text><text x="1186" y="758" text-anchor="end" font-family="Arial" font-size="7.5" fill="#bdc3c7">Scale: NTS</text><text x="1186" y="769" text-anchor="end" font-family="Arial" font-size="7.5" fill="#bdc3c7">20,000 L/day SWRO</text></svg>