  0
SECTION
  2
HEADER
  9
$ACADVER
  1
AC1009
  9
$INSBASE
 10
0.0
 20
0.0
 30
0.0
  9
$EXTMIN
 10
0.0
 20
0.0
 30
0.0
  9
$EXTMAX
 10
860.0
 20
640.0
 30
0.0
  9
$LIMMIN
 10
0.0
 20
0.0
  9
$LIMMAX
 10
860.0
 20
640.0
  9
$LTSCALE
 40
1.0
  9
$TEXTSTYLE
  7
STANDARD
  9
$TEXTSIZE
 40
3.5
  0
ENDSEC
  0
SECTION
  2
TABLES
  0
TABLE
  2
LAYER
 70
8
  0
LAYER
  2
0
 70
0
 62
7
  6
CONTINUOUS
  0
LAYER
  2
FEED
 70
0
 62
5
  6
CONTINUOUS
  0
LAYER
  2
PERMEATE
 70
0
 62
3
  6
CONTINUOUS
  0
LAYER
  2
BRINE
 70
0
 62
2
  6
CONTINUOUS
  0
LAYER
  2
ELECTRICAL
 70
0
 62
6
  6
DASHED
  0
LAYER
  2
VESSELS
 70
0
 62
1
  6
CONTINUOUS
  0
LAYER
  2
INSTRUMENTS
 70
0
 62
4
  6
CONTINUOUS
  0
LAYER
  2
TEXT
 70
0
 62
7
  6
CONTINUOUS
  0
LAYER
  2
TITLEBLOCK
 70
0
 62
7
  6
CONTINUOUS
  0
ENDTAB
  0
TABLE
  2
LTYPE
 70
2
  0
LTYPE
  2
CONTINUOUS
 70
0
  3
Solid line
 72
65
 73
0
 40
0.0
  0
LTYPE
  2
DASHED
 70
0
  3
Dashed line
 72
65
 73
2
 40
12.0
 49
6.0
 49
-6.0
  0
ENDTAB
  0
ENDSEC
  0
SECTION
  2
ENTITIES
  0
LINE
  8
TITLEBLOCK
 10
0.0
 20
0.0
 30
0.0
 11
841.0
 21
0.0
 31
0.0
  0
LINE
  8
TITLEBLOCK
 10
841.0
 20
0.0
 30
0.0
 11
841.0
 21
594.0
 31
0.0
  0
LINE
  8
TITLEBLOCK
 10
841.0
 20
594.0
 30
0.0
 11
0.0
 21
594.0
 31
0.0
  0
LINE
  8
TITLEBLOCK
 10
0.0
 20
594.0
 30
0.0
 11
0.0
 21
0.0
 31
0.0
  0
LINE
  8
TITLEBLOCK
 10
0.0
 20
0.0
 30
0.0
 11
841.0
 21
0.0
 31
0.0
  0
LINE
  8
TITLEBLOCK
 10
841.0
 20
0.0
 30
0.0
 11
841.0
 21
30.0
 31
0.0
  0
LINE
  8
TITLEBLOCK
 10
841.0
 20
30.0
 30
0.0
 11
0.0
 21
30.0
 31
0.0
  0
LINE
  8
TITLEBLOCK
 10
0.0
 20
30.0
 30
0.0
 11
0.0
 21
0.0
 31
0.0
  0
TEXT
  8
TITLEBLOCK
 10
420.0
 20
18.0
 30
0.0
 40
5.0
  1
ARCHMEDIS TECHNICAL TRIAL - ROUND 2  |  SOLAR SPRO SYSTEM  |  P&ID SHEET 1 OF 1
 72
1
 11
420.0
 21
18.0
 31
0.0
  0
TEXT
  8
TITLEBLOCK
 10
10.0
 20
8.0
 30
0.0
 40
3.0
  1
DWG NO: ARCH-R2-PID-001  |  Rev A  |  Scale NTS  |  June 2026
 72
1
 11
10.0
 21
8.0
 31
0.0
  0
TEXT
  8
TITLEBLOCK
 10
600.0
 20
8.0
 30
0.0
 40
3.0
  1
Candidate Submission - Solar SWRO 20,000 L/day
 72
1
 11
600.0
 21
8.0
 31
0.0
  0
LINE
  8
TITLEBLOCK
 10
10.0
 20
35.0
 30
0.0
 11
831.0
 21
35.0
 31
0.0
  0
LINE
  8
TITLEBLOCK
 10
831.0
 20
35.0
 30
0.0
 11
831.0
 21
584.0
 31
0.0
  0
LINE
  8
TITLEBLOCK
 10
831.0
 20
584.0
 30
0.0
 11
10.0
 21
584.0
 31
0.0
  0
LINE
  8
TITLEBLOCK
 10
10.0
 20
584.0
 30
0.0
 11
10.0
 21
35.0
 31
0.0
  0
LINE
  8
VESSELS
 10
30.0
 20
295.0
 30
0.0
 11
90.0
 21
295.0
 31
0.0
  0
LINE
  8
VESSELS
 10
90.0
 20
295.0
 30
0.0
 11
90.0
 21
345.0
 31
0.0
  0
LINE
  8
VESSELS
 10
90.0
 20
345.0
 30
0.0
 11
30.0
 21
345.0
 31
0.0
  0
LINE
  8
VESSELS
 10
30.0
 20
345.0
 30
0.0
 11
30.0
 21
295.0
 31
0.0
  0
TEXT
  8
TEXT
 10
60.0
 20
332.0
 30
0.0
 40
3.5
  1
SEAWATER
 72
1
 11
60.0
 21
332.0
 31
0.0
  0
TEXT
  8
TEXT
 10
60.0
 20
324.0
 30
0.0
 40
3.5
  1
SOURCE
 72
1
 11
60.0
 21
324.0
 31
0.0
  0
TEXT
  8
TEXT
 10
60.0
 20
316.0
 30
0.0
 40
3.0
  1
44.4 m3/d
 72
1
 11
60.0
 21
316.0
 31
0.0
  0
TEXT
  8
TEXT
 10
60.0
 20
309.0
 30
0.0
 40
3.0
  1
35 g/L NaCl
 72
1
 11
60.0
 21
309.0
 31
0.0
  0
TEXT
  8
TEXT
 10
60.0
 20
302.0
 30
0.0
 40
2.5
  1
TAG: SW-IN
 72
1
 11
60.0
 21
302.0
 31
0.0
  0
LINE
  8
VESSELS
 10
110.0
 20
360.0
 30
0.0
 11
165.0
 21
360.0
 31
0.0
  0
LINE
  8
VESSELS
 10
165.0
 20
360.0
 30
0.0
 11
165.0
 21
395.0
 31
0.0
  0
LINE
  8
VESSELS
 10
165.0
 20
395.0
 30
0.0
 11
110.0
 21
395.0
 31
0.0
  0
LINE
  8
VESSELS
 10
110.0
 20
395.0
 30
0.0
 11
110.0
 21
360.0
 31
0.0
  0
TEXT
  8
TEXT
 10
137.0
 20
385.0
 30
0.0
 40
2.8
  1
ANTISCALANT
 72
1
 11
137.0
 21
385.0
 31
0.0
  0
TEXT
  8
TEXT
 10
137.0
 20
378.0
 30
0.0
 40
2.8
  1
DOSING
 72
1
 11
137.0
 21
378.0
 31
0.0
  0
TEXT
  8
TEXT
 10
137.0
 20
371.0
 30
0.0
 40
2.8
  1
D-01
 72
1
 11
137.0
 21
371.0
 31
0.0
  0
TEXT
  8
TEXT
 10
137.0
 20
364.0
 30
0.0
 40
2.5
  1
<5 ppm dose
 72
1
 11
137.0
 21
364.0
 31
0.0
  0
LINE
  8
FEED
 10
137.0
 20
360.0
 30
0.0
 11
137.0
 21
320.0
 31
0.0
  0
CIRCLE
  8
VESSELS
 10
185.0
 20
320.0
 30
0.0
 40
18.0
  0
TEXT
  8
TEXT
 10
185.0
 20
323.0
 30
0.0
 40
4.0
  1
P
 72
1
 11
185.0
 21
323.0
 31
0.0
  0
TEXT
  8
TEXT
 10
185.0
 20
316.0
 30
0.0
 40
2.8
  1
P-01
 72
1
 11
185.0
 21
316.0
 31
0.0
  0
TEXT
  8
TEXT
 10
185.0
 20
298.0
 30
0.0
 40
3.0
  1
LP PUMP
 72
1
 11
185.0
 21
298.0
 31
0.0
  0
TEXT
  8
TEXT
 10
185.0
 20
292.0
 30
0.0
 40
3.0
  1
2.5 bar
 72
1
 11
185.0
 21
292.0
 31
0.0
  0
TEXT
  8
TEXT
 10
185.0
 20
286.0
 30
0.0
 40
2.5
  1
3.0 m3/h
 72
1
 11
185.0
 21
286.0
 31
0.0
  0
LINE
  8
VESSELS
 10
173.0
 20
312.0
 30
0.0
 11
197.0
 21
312.0
 31
0.0
  0
LINE
  8
VESSELS
 10
185.0
 20
328.0
 30
0.0
 11
173.0
 21
312.0
 31
0.0
  0
LINE
  8
VESSELS
 10
185.0
 20
328.0
 30
0.0
 11
197.0
 21
312.0
 31
0.0
  0
CIRCLE
  8
INSTRUMENTS
 10
185.0
 20
270.0
 30
0.0
 40
7.0
  0
TEXT
  8
INSTRUMENTS
 10
185.0
 20
268.5
 30
0.0
 40
2.8
  1
FI-01
 72
1
 11
185.0
 21
268.5
 31
0.0
  0
LINE
  8
INSTRUMENTS
 10
185.0
 20
286.0
 30
0.0
 11
185.0
 21
277.0
 31
0.0
  0
LINE
  8
VESSELS
 10
230.0
 20
290.0
 30
0.0
 11
300.0
 21
290.0
 31
0.0
  0
LINE
  8
VESSELS
 10
300.0
 20
290.0
 30
0.0
 11
300.0
 21
360.0
 31
0.0
  0
LINE
  8
VESSELS
 10
300.0
 20
360.0
 30
0.0
 11
230.0
 21
360.0
 31
0.0
  0
LINE
  8
VESSELS
 10
230.0
 20
360.0
 30
0.0
 11
230.0
 21
290.0
 31
0.0
  0
TEXT
  8
TEXT
 10
265.0
 20
352.0
 30
0.0
 40
3.5
  1
UF PRE-TX
 72
1
 11
265.0
 21
352.0
 31
0.0
  0
TEXT
  8
TEXT
 10
265.0
 20
344.0
 30
0.0
 40
3.5
  1
F-01
 72
1
 11
265.0
 21
344.0
 31
0.0
  0
TEXT
  8
TEXT
 10
265.0
 20
336.0
 30
0.0
 40
3.0
  1
Filmtec UF
 72
1
 11
265.0
 21
336.0
 31
0.0
  0
TEXT
  8
TEXT
 10
265.0
 20
329.0
 30
0.0
 40
3.0
  1
SDI < 3
 72
1
 11
265.0
 21
329.0
 31
0.0
  0
TEXT
  8
TEXT
 10
265.0
 20
322.0
 30
0.0
 40
3.0
  1
0.02 um
 72
1
 11
265.0
 21
322.0
 31
0.0
  0
TEXT
  8
TEXT
 10
265.0
 20
315.0
 30
0.0
 40
3.0
  1
Turbidity
 72
1
 11
265.0
 21
315.0
 31
0.0
  0
TEXT
  8
TEXT
 10
265.0
 20
308.0
 30
0.0
 40
3.0
  1
< 0.1 NTU
 72
1
 11
265.0
 21
308.0
 31
0.0
  0
TEXT
  8
TEXT
 10
265.0
 20
300.0
 30
0.0
 40
2.5
  1
PVDF h-fibre
 72
1
 11
265.0
 21
300.0
 31
0.0
  0
CIRCLE
  8
INSTRUMENTS
 10
240.0
 20
375.0
 30
0.0
 40
7.0
  0
TEXT
  8
INSTRUMENTS
 10
240.0
 20
373.5
 30
0.0
 40
2.8
  1
PT-01
 72
1
 11
240.0
 21
373.5
 31
0.0
  0
LINE
  8
INSTRUMENTS
 10
240.0
 20
368.0
 30
0.0
 11
240.0
 21
360.0
 31
0.0
  0
CIRCLE
  8
INSTRUMENTS
 10
280.0
 20
375.0
 30
0.0
 40
7.0
  0
TEXT
  8
INSTRUMENTS
 10
280.0
 20
373.5
 30
0.0
 40
2.8
  1
AT-01
 72
1
 11
280.0
 21
373.5
 31
0.0
  0
LINE
  8
INSTRUMENTS
 10
280.0
 20
368.0
 30
0.0
 11
280.0
 21
360.0
 31
0.0
  0
CIRCLE
  8
VESSELS
 10
360.0
 20
320.0
 30
0.0
 40
22.0
  0
TEXT
  8
TEXT
 10
360.0
 20
323.0
 30
0.0
 40
4.5
  1
P
 72
1
 11
360.0
 21
323.0
 31
0.0
  0
TEXT
  8
TEXT
 10
360.0
 20
315.0
 30
0.0
 40
3.0
  1
P-02
 72
1
 11
360.0
 21
315.0
 31
0.0
  0
TEXT
  8
TEXT
 10
360.0
 20
293.0
 30
0.0
 40
3.0
  1
HP PUMP
 72
1
 11
360.0
 21
293.0
 31
0.0
  0
TEXT
  8
TEXT
 10
360.0
 20
286.0
 30
0.0
 40
3.5
  1
60 bar
 72
1
 11
360.0
 21
286.0
 31
0.0
  0
TEXT
  8
TEXT
 10
360.0
 20
279.0
 30
0.0
 40
3.0
  1
1.85 m3/h
 72
1
 11
360.0
 21
279.0
 31
0.0
  0
TEXT
  8
TEXT
 10
360.0
 20
272.0
 30
0.0
 40
3.0
  1
5.5 kW
 72
1
 11
360.0
 21
272.0
 31
0.0
  0
TEXT
  8
TEXT
 10
360.0
 20
265.0
 30
0.0
 40
2.5
  1
Grundfos MTRE
 72
1
 11
360.0
 21
265.0
 31
0.0
  0
LINE
  8
VESSELS
 10
347.0
 20
312.0
 30
0.0
 11
373.0
 21
312.0
 31
0.0
  0
LINE
  8
VESSELS
 10
360.0
 20
330.0
 30
0.0
 11
347.0
 21
312.0
 31
0.0
  0
LINE
  8
VESSELS
 10
360.0
 20
330.0
 30
0.0
 11
373.0
 21
312.0
 31
0.0
  0
CIRCLE
  8
INSTRUMENTS
 10
360.0
 20
358.0
 30
0.0
 40
7.0
  0
TEXT
  8
INSTRUMENTS
 10
360.0
 20
356.5
 30
0.0
 40
2.8
  1
PT-02
 72
1
 11
360.0
 21
356.5
 31
0.0
  0
LINE
  8
INSTRUMENTS
 10
360.0
 20
351.0
 30
0.0
 11
360.0
 21
342.0
 31
0.0
  0
TEXT
  8
TEXT
 10
390.0
 20
345.0
 30
0.0
 40
2.5
  1
PSV-01
 72
1
 11
390.0
 21
345.0
 31
0.0
  0
TEXT
  8
TEXT
 10
390.0
 20
340.0
 30
0.0
 40
2.5
  1
(relief valve)
 72
1
 11
390.0
 21
340.0
 31
0.0
  0
TEXT
  8
TEXT
 10
390.0
 20
335.0
 30
0.0
 40
2.5
  1
set 70 bar
 72
1
 11
390.0
 21
335.0
 31
0.0
  0
LINE
  8
VESSELS
 10
420.0
 20
245.0
 30
0.0
 11
490.0
 21
245.0
 31
0.0
  0
LINE
  8
VESSELS
 10
490.0
 20
245.0
 30
0.0
 11
490.0
 21
290.0
 31
0.0
  0
LINE
  8
VESSELS
 10
490.0
 20
290.0
 30
0.0
 11
420.0
 21
290.0
 31
0.0
  0
LINE
  8
VESSELS
 10
420.0
 20
290.0
 30
0.0
 11
420.0
 21
245.0
 31
0.0
  0
TEXT
  8
TEXT
 10
455.0
 20
282.0
 30
0.0
 40
3.5
  1
PX DEVICE
 72
1
 11
455.0
 21
282.0
 31
0.0
  0
TEXT
  8
TEXT
 10
455.0
 20
275.0
 30
0.0
 40
3.5
  1
E-01
 72
1
 11
455.0
 21
275.0
 31
0.0
  0
TEXT
  8
TEXT
 10
455.0
 20
268.0
 30
0.0
 40
3.0
  1
ERI PX-70
 72
1
 11
455.0
 21
268.0
 31
0.0
  0
TEXT
  8
TEXT
 10
455.0
 20
261.0
 30
0.0
 40
3.0
  1
eta = 96%
 72
1
 11
455.0
 21
261.0
 31
0.0
  0
TEXT
  8
TEXT
 10
455.0
 20
254.0
 30
0.0
 40
3.0
  1
isobaric
 72
1
 11
455.0
 21
254.0
 31
0.0
  0
TEXT
  8
TEXT
 10
455.0
 20
247.0
 30
0.0
 40
2.5
  1
brine > feed
 72
1
 11
455.0
 21
247.0
 31
0.0
  0
LINE
  8
VESSELS
 10
420.0
 20
310.0
 30
0.0
 11
720.0
 21
310.0
 31
0.0
  0
LINE
  8
VESSELS
 10
720.0
 20
310.0
 30
0.0
 11
720.0
 21
390.0
 31
0.0
  0
LINE
  8
VESSELS
 10
720.0
 20
390.0
 30
0.0
 11
420.0
 21
390.0
 31
0.0
  0
LINE
  8
VESSELS
 10
420.0
 20
390.0
 30
0.0
 11
420.0
 21
310.0
 31
0.0
  0
LINE
  8
VESSELS
 10
470.0
 20
310.0
 30
0.0
 11
470.0
 21
390.0
 31
0.0
  0
LINE
  8
VESSELS
 10
520.0
 20
310.0
 30
0.0
 11
520.0
 21
390.0
 31
0.0
  0
LINE
  8
VESSELS
 10
570.0
 20
310.0
 30
0.0
 11
570.0
 21
390.0
 31
0.0
  0
LINE
  8
VESSELS
 10
620.0
 20
310.0
 30
0.0
 11
620.0
 21
390.0
 31
0.0
  0
LINE
  8
VESSELS
 10
670.0
 20
310.0
 30
0.0
 11
670.0
 21
390.0
 31
0.0
  0
TEXT
  8
TEXT
 10
570.0
 20
382.0
 30
0.0
 40
5.0
  1
RO PRESSURE VESSEL  -  V-01
 72
1
 11
570.0
 21
382.0
 31
0.0
  0
TEXT
  8
TEXT
 10
570.0
 20
373.0
 30
0.0
 40
3.5
  1
6 x Filmtec SW30XHR-400i  |  223 m2 active area
 72
1
 11
570.0
 21
373.0
 31
0.0
  0
TEXT
  8
TEXT
 10
570.0
 20
364.0
 30
0.0
 40
3.5
  1
Feed: 44.4 m3/d @ 60 bar  |  Recovery: 45%  |  T=25C
 72
1
 11
570.0
 21
364.0
 31
0.0
  0
TEXT
  8
TEXT
 10
570.0
 20
355.0
 30
0.0
 40
3.5
  1
Permeate: 20,000 L/d  |  NaCl rejection: 99.75%
 72
1
 11
570.0
 21
355.0
 31
0.0
  0
TEXT
  8
TEXT
 10
570.0
 20
347.0
 30
0.0
 40
3.5
  1
Brine: 24,400 L/d @ 63.6 g/L  |  Brine osmotic pi=51.6 bar
 72
1
 11
570.0
 21
347.0
 31
0.0
  0
TEXT
  8
TEXT
 10
570.0
 20
338.0
 30
0.0
 40
3.0
  1
CP factor: 1.49  |  Effective osmotic pressure: 42.3 bar
 72
1
 11
570.0
 21
338.0
 31
0.0
  0
TEXT
  8
TEXT
 10
570.0
 20
330.0
 30
0.0
 40
3.0
  1
NDP: 60 - 42.3 = 17.7 bar  |  Flux J = 20 L/(m2.h)
 72
1
 11
570.0
 21
330.0
 31
0.0
  0
CIRCLE
  8
INSTRUMENTS
 10
450.0
 20
405.0
 30
0.0
 40
7.0
  0
TEXT
  8
INSTRUMENTS
 10
450.0
 20
403.5
 30
0.0
 40
2.8
  1
PI-01
 72
1
 11
450.0
 21
403.5
 31
0.0
  0
LINE
  8
INSTRUMENTS
 10
450.0
 20
398.0
 30
0.0
 11
450.0
 21
390.0
 31
0.0
  0
CIRCLE
  8
INSTRUMENTS
 10
510.0
 20
405.0
 30
0.0
 40
7.0
  0
TEXT
  8
INSTRUMENTS
 10
510.0
 20
403.5
 30
0.0
 40
2.8
  1
PT-03
 72
1
 11
510.0
 21
403.5
 31
0.0
  0
LINE
  8
INSTRUMENTS
 10
510.0
 20
398.0
 30
0.0
 11
510.0
 21
390.0
 31
0.0
  0
CIRCLE
  8
INSTRUMENTS
 10
570.0
 20
405.0
 30
0.0
 40
7.0
  0
TEXT
  8
INSTRUMENTS
 10
570.0
 20
403.5
 30
0.0
 40
2.8
  1
AT-02
 72
1
 11
570.0
 21
403.5
 31
0.0
  0
LINE
  8
INSTRUMENTS
 10
570.0
 20
398.0
 30
0.0
 11
570.0
 21
390.0
 31
0.0
  0
CIRCLE
  8
INSTRUMENTS
 10
630.0
 20
405.0
 30
0.0
 40
7.0
  0
TEXT
  8
INSTRUMENTS
 10
630.0
 20
403.5
 30
0.0
 40
2.8
  1
FI-02
 72
1
 11
630.0
 21
403.5
 31
0.0
  0
LINE
  8
INSTRUMENTS
 10
630.0
 20
398.0
 30
0.0
 11
630.0
 21
390.0
 31
0.0
  0
CIRCLE
  8
INSTRUMENTS
 10
690.0
 20
405.0
 30
0.0
 40
7.0
  0
TEXT
  8
INSTRUMENTS
 10
690.0
 20
403.5
 30
0.0
 40
2.8
  1
PI-02
 72
1
 11
690.0
 21
403.5
 31
0.0
  0
LINE
  8
INSTRUMENTS
 10
690.0
 20
398.0
 30
0.0
 11
690.0
 21
390.0
 31
0.0
  0
LINE
  8
VESSELS
 10
740.0
 20
310.0
 30
0.0
 11
810.0
 21
310.0
 31
0.0
  0
LINE
  8
VESSELS
 10
810.0
 20
310.0
 30
0.0
 11
810.0
 21
390.0
 31
0.0
  0
LINE
  8
VESSELS
 10
810.0
 20
390.0
 30
0.0
 11
740.0
 21
390.0
 31
0.0
  0
LINE
  8
VESSELS
 10
740.0
 20
390.0
 30
0.0
 11
740.0
 21
310.0
 31
0.0
  0
TEXT
  8
TEXT
 10
775.0
 20
382.0
 30
0.0
 40
3.5
  1
PERMEATE
 72
1
 11
775.0
 21
382.0
 31
0.0
  0
TEXT
  8
TEXT
 10
775.0
 20
374.0
 30
0.0
 40
3.5
  1
T-01
 72
1
 11
775.0
 21
374.0
 31
0.0
  0
TEXT
  8
TEXT
 10
775.0
 20
366.0
 30
0.0
 40
3.0
  1
20,000 L/d
 72
1
 11
775.0
 21
366.0
 31
0.0
  0
TEXT
  8
TEXT
 10
775.0
 20
358.0
 30
0.0
 40
3.0
  1
< 500 ppm
 72
1
 11
775.0
 21
358.0
 31
0.0
  0
TEXT
  8
TEXT
 10
775.0
 20
350.0
 30
0.0
 40
3.0
  1
TDS
 72
1
 11
775.0
 21
350.0
 31
0.0
  0
CIRCLE
  8
INSTRUMENTS
 10
775.0
 20
300.0
 30
0.0
 40
7.0
  0
TEXT
  8
INSTRUMENTS
 10
775.0
 20
298.5
 30
0.0
 40
2.8
  1
LI-01
 72
1
 11
775.0
 21
298.5
 31
0.0
  0
LINE
  8
INSTRUMENTS
 10
775.0
 20
307.0
 30
0.0
 11
775.0
 21
310.0
 31
0.0
  0
LINE
  8
VESSELS
 10
740.0
 20
200.0
 30
0.0
 11
810.0
 21
200.0
 31
0.0
  0
LINE
  8
VESSELS
 10
810.0
 20
200.0
 30
0.0
 11
810.0
 21
250.0
 31
0.0
  0
LINE
  8
VESSELS
 10
810.0
 20
250.0
 30
0.0
 11
740.0
 21
250.0
 31
0.0
  0
LINE
  8
VESSELS
 10
740.0
 20
250.0
 30
0.0
 11
740.0
 21
200.0
 31
0.0
  0
TEXT
  8
TEXT
 10
775.0
 20
244.0
 30
0.0
 40
3.5
  1
BRINE
 72
1
 11
775.0
 21
244.0
 31
0.0
  0
TEXT
  8
TEXT
 10
775.0
 20
236.0
 30
0.0
 40
3.5
  1
DISPOSAL
 72
1
 11
775.0
 21
236.0
 31
0.0
  0
TEXT
  8
TEXT
 10
775.0
 20
228.0
 30
0.0
 40
3.0
  1
24,400 L/d
 72
1
 11
775.0
 21
228.0
 31
0.0
  0
TEXT
  8
TEXT
 10
775.0
 20
220.0
 30
0.0
 40
3.0
  1
63.6 g/L
 72
1
 11
775.0
 21
220.0
 31
0.0
  0
TEXT
  8
TEXT
 10
775.0
 20
212.0
 30
0.0
 40
3.0
  1
diffuser
 72
1
 11
775.0
 21
212.0
 31
0.0
  0
LINE
  8
VESSELS
 10
30.0
 20
130.0
 30
0.0
 11
160.0
 21
130.0
 31
0.0
  0
LINE
  8
VESSELS
 10
160.0
 20
130.0
 30
0.0
 11
160.0
 21
180.0
 31
0.0
  0
LINE
  8
VESSELS
 10
160.0
 20
180.0
 30
0.0
 11
30.0
 21
180.0
 31
0.0
  0
LINE
  8
VESSELS
 10
30.0
 20
180.0
 30
0.0
 11
30.0
 21
130.0
 31
0.0
  0
TEXT
  8
TEXT
 10
95.0
 20
174.0
 30
0.0
 40
3.5
  1
PV ARRAY
 72
1
 11
95.0
 21
174.0
 31
0.0
  0
TEXT
  8
TEXT
 10
95.0
 20
167.0
 30
0.0
 40
3.0
  1
37 x 400W panels
 72
1
 11
95.0
 21
167.0
 31
0.0
  0
TEXT
  8
TEXT
 10
95.0
 20
160.0
 30
0.0
 40
3.0
  1
14.8 kWp
 72
1
 11
95.0
 21
160.0
 31
0.0
  0
TEXT
  8
TEXT
 10
95.0
 20
153.0
 30
0.0
 40
3.0
  1
72.9 m2
 72
1
 11
95.0
 21
153.0
 31
0.0
  0
TEXT
  8
TEXT
 10
95.0
 20
146.0
 30
0.0
 40
3.0
  1
eta=21% STC
 72
1
 11
95.0
 21
146.0
 31
0.0
  0
TEXT
  8
TEXT
 10
95.0
 20
139.0
 30
0.0
 40
2.5
  1
MPPT via INV-01
 72
1
 11
95.0
 21
139.0
 31
0.0
  0
LINE
  8
VESSELS
 10
180.0
 20
130.0
 30
0.0
 11
310.0
 21
130.0
 31
0.0
  0
LINE
  8
VESSELS
 10
310.0
 20
130.0
 30
0.0
 11
310.0
 21
180.0
 31
0.0
  0
LINE
  8
VESSELS
 10
310.0
 20
180.0
 30
0.0
 11
180.0
 21
180.0
 31
0.0
  0
LINE
  8
VESSELS
 10
180.0
 20
180.0
 30
0.0
 11
180.0
 21
130.0
 31
0.0
  0
TEXT
  8
TEXT
 10
245.0
 20
174.0
 30
0.0
 40
3.5
  1
LFP BATTERY
 72
1
 11
245.0
 21
174.0
 31
0.0
  0
TEXT
  8
TEXT
 10
245.0
 20
167.0
 30
0.0
 40
3.5
  1
BAT-01
 72
1
 11
245.0
 21
167.0
 31
0.0
  0
TEXT
  8
TEXT
 10
245.0
 20
160.0
 30
0.0
 40
3.5
  1
87.5 kWh
 72
1
 11
245.0
 21
160.0
 31
0.0
  0
TEXT
  8
TEXT
 10
245.0
 20
153.0
 30
0.0
 40
3.0
  1
48V system
 72
1
 11
245.0
 21
153.0
 31
0.0
  0
TEXT
  8
TEXT
 10
245.0
 20
146.0
 30
0.0
 40
3.0
  1
80% DoD
 72
1
 11
245.0
 21
146.0
 31
0.0
  0
TEXT
  8
TEXT
 10
245.0
 20
139.0
 30
0.0
 40
2.5
  1
CATL 280Ah cells
 72
1
 11
245.0
 21
139.0
 31
0.0
  0
LINE
  8
VESSELS
 10
330.0
 20
130.0
 30
0.0
 11
420.0
 21
130.0
 31
0.0
  0
LINE
  8
VESSELS
 10
420.0
 20
130.0
 30
0.0
 11
420.0
 21
180.0
 31
0.0
  0
LINE
  8
VESSELS
 10
420.0
 20
180.0
 30
0.0
 11
330.0
 21
180.0
 31
0.0
  0
LINE
  8
VESSELS
 10
330.0
 20
180.0
 30
0.0
 11
330.0
 21
130.0
 31
0.0
  0
TEXT
  8
TEXT
 10
375.0
 20
174.0
 30
0.0
 40
3.5
  1
INVERTER
 72
1
 11
375.0
 21
174.0
 31
0.0
  0
TEXT
  8
TEXT
 10
375.0
 20
167.0
 30
0.0
 40
3.5
  1
INV-01
 72
1
 11
375.0
 21
167.0
 31
0.0
  0
TEXT
  8
TEXT
 10
375.0
 20
160.0
 30
0.0
 40
3.0
  1
Victron 48/8000
 72
1
 11
375.0
 21
160.0
 31
0.0
  0
TEXT
  8
TEXT
 10
375.0
 20
153.0
 30
0.0
 40
3.0
  1
8 kW AC
 72
1
 11
375.0
 21
153.0
 31
0.0
  0
TEXT
  8
TEXT
 10
375.0
 20
146.0
 30
0.0
 40
2.5
  1
MPPT 150V/100A
 72
1
 11
375.0
 21
146.0
 31
0.0
  0
LINE
  8
FEED
 10
90.0
 20
320.0
 30
0.0
 11
167.0
 21
320.0
 31
0.0
  0
TEXT
  8
FEED
 10
120.0
 20
323.0
 30
0.0
 40
2.5
  1
44.4 m3/d
 72
1
 11
120.0
 21
323.0
 31
0.0
  0
LINE
  8
FEED
 10
137.0
 20
320.0
 30
0.0
 11
173.0
 21
320.0
 31
0.0
  0
LINE
  8
FEED
 10
203.0
 20
320.0
 30
0.0
 11
230.0
 21
320.0
 31
0.0
  0
TEXT
  8
TEXT
 10
210.0
 20
323.0
 30
0.0
 40
2.5
  1
FI-01
 72
1
 11
210.0
 21
323.0
 31
0.0
  0
LINE
  8
FEED
 10
300.0
 20
320.0
 30
0.0
 11
338.0
 21
320.0
 31
0.0
  0
TEXT
  8
TEXT
 10
310.0
 20
323.0
 30
0.0
 40
2.5
  1
SDI<3
 72
1
 11
310.0
 21
323.0
 31
0.0
  0
LINE
  8
FEED
 10
382.0
 20
320.0
 30
0.0
 11
420.0
 21
320.0
 31
0.0
  0
LINE
  8
FEED
 10
382.0
 20
322.0
 30
0.0
 11
420.0
 21
322.0
 31
0.0
  0
TEXT
  8
TEXT
 10
395.0
 20
326.0
 30
0.0
 40
3.0
  1
60 bar
 72
1
 11
395.0
 21
326.0
 31
0.0
  0
LINE
  8
VESSELS
 10
388.0
 20
327.0
 30
0.0
 11
415.0
 21
327.0
 31
0.0
  0
LINE
  8
VESSELS
 10
415.0
 20
327.0
 30
0.0
 11
415.0
 21
335.0
 31
0.0
  0
LINE
  8
VESSELS
 10
415.0
 20
335.0
 30
0.0
 11
388.0
 21
335.0
 31
0.0
  0
LINE
  8
VESSELS
 10
388.0
 20
335.0
 30
0.0
 11
388.0
 21
327.0
 31
0.0
  0
LINE
  8
PERMEATE
 10
720.0
 20
350.0
 30
0.0
 11
740.0
 21
350.0
 31
0.0
  0
TEXT
  8
PERMEATE
 10
725.0
 20
354.0
 30
0.0
 40
2.5
  1
20,000 L/d
 72
1
 11
725.0
 21
354.0
 31
0.0
  0
LINE
  8
BRINE
 10
720.0
 20
370.0
 30
0.0
 11
770.0
 21
370.0
 31
0.0
  0
LINE
  8
BRINE
 10
770.0
 20
370.0
 30
0.0
 11
770.0
 21
250.0
 31
0.0
  0
LINE
  8
BRINE
 10
770.0
 20
250.0
 30
0.0
 11
810.0
 21
250.0
 31
0.0
  0
TEXT
  8
BRINE
 10
730.0
 20
374.0
 30
0.0
 40
2.5
  1
24,400 L/d
 72
1
 11
730.0
 21
374.0
 31
0.0
  0
TEXT
  8
BRINE
 10
730.0
 20
367.0
 30
0.0
 40
2.5
  1
63.6 g/L
 72
1
 11
730.0
 21
367.0
 31
0.0
  0
LINE
  8
BRINE
 10
720.0
 20
360.0
 30
0.0
 11
760.0
 21
360.0
 31
0.0
  0
LINE
  8
BRINE
 10
760.0
 20
360.0
 30
0.0
 11
760.0
 21
267.0
 31
0.0
  0
LINE
  8
BRINE
 10
760.0
 20
267.0
 30
0.0
 11
490.0
 21
267.0
 31
0.0
  0
TEXT
  8
BRINE
 10
620.0
 20
264.0
 30
0.0
 40
3.0
  1
BRINE TO PX (high pressure side)
 72
1
 11
620.0
 21
264.0
 31
0.0
  0
LINE
  8
FEED
 10
420.0
 20
267.0
 30
0.0
 11
400.0
 21
267.0
 31
0.0
  0
LINE
  8
FEED
 10
400.0
 20
267.0
 30
0.0
 11
400.0
 21
300.0
 31
0.0
  0
LINE
  8
FEED
 10
400.0
 20
300.0
 30
0.0
 11
382.0
 21
300.0
 31
0.0
  0
LINE
  8
FEED
 10
382.0
 20
300.0
 30
0.0
 11
382.0
 21
315.0
 31
0.0
  0
TEXT
  8
FEED
 10
404.0
 20
275.0
 30
0.0
 40
2.5
  1
RECOVERED
 72
1
 11
404.0
 21
275.0
 31
0.0
  0
TEXT
  8
FEED
 10
404.0
 20
270.0
 30
0.0
 40
2.5
  1
PRESSURE
 72
1
 11
404.0
 21
270.0
 31
0.0
  0
TEXT
  8
FEED
 10
404.0
 20
265.0
 30
0.0
 40
2.5
  1
eta=96%
 72
1
 11
404.0
 21
265.0
 31
0.0
  0
LINE
  8
ELECTRICAL
 10
160.0
 20
155.0
 30
0.0
 11
180.0
 21
155.0
 31
0.0
  0
LINE
  8
ELECTRICAL
 10
310.0
 20
155.0
 30
0.0
 11
330.0
 21
155.0
 31
0.0
  0
LINE
  8
ELECTRICAL
 10
420.0
 20
155.0
 30
0.0
 11
450.0
 21
155.0
 31
0.0
  0
LINE
  8
ELECTRICAL
 10
450.0
 20
155.0
 30
0.0
 11
450.0
 21
210.0
 31
0.0
  0
LINE
  8
ELECTRICAL
 10
450.0
 20
210.0
 30
0.0
 11
380.0
 21
210.0
 31
0.0
  0
LINE
  8
ELECTRICAL
 10
380.0
 20
210.0
 30
0.0
 11
380.0
 21
265.0
 31
0.0
  0
LINE
  8
ELECTRICAL
 10
380.0
 20
265.0
 30
0.0
 11
360.0
 21
265.0
 31
0.0
  0
LINE
  8
ELECTRICAL
 10
360.0
 20
265.0
 30
0.0
 11
360.0
 21
342.0
 31
0.0
  0
TEXT
  8
TEXT
 10
455.0
 20
195.0
 30
0.0
 40
2.5
  1
DC POWER
 72
1
 11
455.0
 21
195.0
 31
0.0
  0
TEXT
  8
TEXT
 10
455.0
 20
190.0
 30
0.0
 40
2.5
  1
70 kWh/d
 72
1
 11
455.0
 21
190.0
 31
0.0
  0
LINE
  8
TITLEBLOCK
 10
30.0
 20
45.0
 30
0.0
 11
400.0
 21
45.0
 31
0.0
  0
LINE
  8
TITLEBLOCK
 10
400.0
 20
45.0
 30
0.0
 11
400.0
 21
100.0
 31
0.0
  0
LINE
  8
TITLEBLOCK
 10
400.0
 20
100.0
 30
0.0
 11
30.0
 21
100.0
 31
0.0
  0
LINE
  8
TITLEBLOCK
 10
30.0
 20
100.0
 30
0.0
 11
30.0
 21
45.0
 31
0.0
  0
TEXT
  8
TEXT
 10
215.0
 20
93.0
 30
0.0
 40
4.0
  1
LEGEND
 72
1
 11
215.0
 21
93.0
 31
0.0
  0
LINE
  8
FEED
 10
45.0
 20
82.0
 30
0.0
 11
85.0
 21
82.0
 31
0.0
  0
TEXT
  8
TEXT
 10
90.0
 20
80.0
 30
0.0
 40
3.0
  1
Feed / recovered water (process line)
 72
1
 11
90.0
 21
80.0
 31
0.0
  0
LINE
  8
PERMEATE
 10
45.0
 20
72.0
 30
0.0
 11
85.0
 21
72.0
 31
0.0
  0
TEXT
  8
TEXT
 10
90.0
 20
70.0
 30
0.0
 40
3.0
  1
Permeate (freshwater product)
 72
1
 11
90.0
 21
70.0
 31
0.0
  0
LINE
  8
BRINE
 10
45.0
 20
62.0
 30
0.0
 11
85.0
 21
62.0
 31
0.0
  0
TEXT
  8
TEXT
 10
90.0
 20
60.0
 30
0.0
 40
3.0
  1
Brine reject
 72
1
 11
90.0
 21
60.0
 31
0.0
  0
LINE
  8
ELECTRICAL
 10
45.0
 20
52.0
 30
0.0
 11
85.0
 21
52.0
 31
0.0
  0
TEXT
  8
TEXT
 10
90.0
 20
50.0
 30
0.0
 40
3.0
  1
Electrical / DC power (dashed)
 72
1
 11
90.0
 21
50.0
 31
0.0
  0
CIRCLE
  8
INSTRUMENTS
 10
65.0
 20
40.0
 30
0.0
 40
6.0
  0
TEXT
  8
INSTRUMENTS
 10
65.0
 20
38.5
 30
0.0
 40
2.5
  1
XX
 72
1
 11
65.0
 21
38.5
 31
0.0
  0
TEXT
  8
TEXT
 10
90.0
 20
38.0
 30
0.0
 40
3.0
  1
Instrument tag (circle = field-mounted)
 72
1
 11
90.0
 21
38.0
 31
0.0
  0
LINE
  8
TITLEBLOCK
 10
430.0
 20
45.0
 30
0.0
 11
830.0
 21
45.0
 31
0.0
  0
LINE
  8
TITLEBLOCK
 10
830.0
 20
45.0
 30
0.0
 11
830.0
 21
105.0
 31
0.0
  0
LINE
  8
TITLEBLOCK
 10
830.0
 20
105.0
 30
0.0
 11
430.0
 21
105.0
 31
0.0
  0
LINE
  8
TITLEBLOCK
 10
430.0
 20
105.0
 30
0.0
 11
430.0
 21
45.0
 31
0.0
  0
TEXT
  8
TEXT
 10
630.0
 20
98.0
 30
0.0
 40
4.0
  1
DESIGN NOTES
 72
1
 11
630.0
 21
98.0
 31
0.0
  0
TEXT
  8
TEXT
 10
440.0
 20
89.0
 30
0.0
 40
2.5
  1
1. All piping in SS316L or HDPE PN10+ rated for 70 bar service.
 72
1
 11
440.0
 21
89.0
 31
0.0
  0
TEXT
  8
TEXT
 10
440.0
 20
81.0
 30
0.0
 40
2.5
  1
2. PSV-01 set at 70 bar (10 bar above operating) on HP pump outlet.
 72
1
 11
440.0
 21
81.0
 31
0.0
  0
TEXT
  8
TEXT
 10
440.0
 20
73.0
 30
0.0
 40
2.5
  1
3. HP pump P-02: 5.5 kW motor, VFD controlled, energy-metered.
 72
1
 11
440.0
 21
73.0
 31
0.0
  0
TEXT
  8
TEXT
 10
440.0
 20
65.0
 30
0.0
 40
2.5
  1
4. PX device E-01: isobaric rotary type, eta=96%. Alternative: turbocharger.
 72
1
 11
440.0
 21
65.0
 31
0.0
  0
TEXT
  8
TEXT
 10
440.0
 20
57.0
 30
0.0
 40
2.5
  1
5. Osmotic pressure basis: van't Hoff, i=1.90, 35 g/L, 25C -> 28.4 bar.
 72
1
 11
440.0
 21
57.0
 31
0.0
  0
TEXT
  8
TEXT
 10
440.0
 20
49.0
 30
0.0
 40
2.5
  1
6. CP factor 1.49 (Graetz-Leveque): membrane sees 52 g/L, NDP=17.7 bar.
 72
1
 11
440.0
 21
49.0
 31
0.0
  0
TEXT
  8
TEXT
 10
440.0
 20
41.0
 30
0.0
 40
2.5
  1
7. Recovery 45% chosen as energy-optimal (Zhu et al. 2009).
 72
1
 11
440.0
 21
41.0
 31
0.0
  0
ENDSEC
  0
EOF
